<?xml version="1.0" encoding="iso-8859-1"?>
<!-- Generator: Adobe Illustrator 16.0.0, SVG Export Plug-In . SVG Version: 6.00 Build 0)  -->
<!DOCTYPE svg PUBLIC "-//W3C//DTD SVG 1.1//EN" "http://www.w3.org/Graphics/SVG/1.1/DTD/svg11.dtd">
<svg version="1.1" id="Capa_1" xmlns="http://www.w3.org/2000/svg" xmlns:xlink="http://www.w3.org/1999/xlink" x="0px" y="0px"
	 width="33.128px" height="33.129px" viewBox="0 0 33.128 33.129" style="enable-background:new 0 0 33.128 33.129;"
	 xml:space="preserve">
<g>
	<g>
		<path d="M9.55,13.323c-0.531,0-0.962,0.489-0.962,1.092v13.292c0,0.604,0.431,1.092,0.962,1.092c0.531,0,0.962-0.488,0.962-1.092
			V14.415C10.512,13.812,10.081,13.323,9.55,13.323z"/>
		<path d="M13.917,13.323c-0.531,0-0.962,0.489-0.962,1.092v13.292c0,0.604,0.431,1.092,0.962,1.092
			c0.531,0,0.962-0.488,0.962-1.092V14.415C14.879,13.812,14.448,13.323,13.917,13.323z"/>
		<path d="M18.284,13.323c-0.531,0-0.962,0.489-0.962,1.092v13.292c0,0.604,0.431,1.092,0.962,1.092
			c0.531,0,0.962-0.488,0.962-1.092V14.415C19.245,13.812,18.815,13.323,18.284,13.323z"/>
		<path d="M24.831,14.019H22.69L22.456,9.84c-0.002-0.033-0.01-0.065-0.015-0.097c0.737-0.701,1.202-1.688,1.202-2.783
			c0-2.11-1.71-3.827-3.817-3.84c-0.255-1.401-1.479-2.468-2.952-2.468c-0.493,0-0.952,0.131-1.363,0.342
			C14.828,0.379,13.928,0,12.94,0c-1.509,0-2.813,0.876-3.441,2.144C6.866,2.172,4.732,4.32,4.732,6.96
			c0,0.933,0.271,1.802,0.732,2.54C5.415,9.604,5.385,9.719,5.378,9.84L4.13,32.141c-0.014,0.258,0.078,0.51,0.254,0.695
			c0.177,0.188,0.422,0.293,0.68,0.293h17.705c0.257,0,0.503-0.105,0.68-0.293c0.177-0.186,0.269-0.438,0.254-0.695l-0.26-4.645
			h1.387c2.3,0,4.171-1.812,4.171-4.042v-5.394C29.001,15.832,27.13,14.019,24.831,14.019z M9.123,3.417
			C9.263,3.4,9.406,3.389,9.55,3.389c0.287,0,0.564,0.038,0.831,0.102c0.059-0.432,0.219-0.83,0.465-1.167
			c0.472-0.649,1.232-1.076,2.093-1.076c0.6,0,1.146,0.213,1.586,0.556c0.347,0.271,0.63,0.619,0.804,1.03
			c0.209-0.389,0.557-0.688,0.981-0.833C16.488,1.94,16.675,1.9,16.873,1.9c0.852,0,1.564,0.609,1.725,1.415
			c0.021,0.111,0.034,0.226,0.034,0.344c0,0.321-0.034,0.603-0.151,0.95c0.063,0.049,0.865-0.239,1.307-0.242
			c0.005,0,0.01-0.001,0.015-0.001c1.431,0,2.595,1.164,2.595,2.593c0,0.807-0.378,1.521-0.959,1.997h-7.576h-1.355H6.591
			C6.205,8.386,5.979,7.699,5.979,6.96C5.979,5.136,7.355,3.629,9.123,3.417z M6.054,31.258L7.179,11.15l0.018-0.322h5.215h8.224
			l0.2,3.573l0.077,1.382l0.574,10.253l0.074,1.328l0.218,3.893L6.054,31.258L6.054,31.258z M22.933,18.377h1.624v4.762h-1.358
			L22.933,18.377z M27.753,23.454c0,1.541-1.311,2.794-2.924,2.794h-1.457l-0.104-1.863h1.561c0.537,0,0.975-0.418,0.975-0.931
			v-5.394c0-0.514-0.437-0.932-0.975-0.932h-1.967l-0.104-1.863h2.071c1.612,0,2.924,1.253,2.924,2.794V23.454z"/>
	</g>
</g>
<g>
</g>
<g>
</g>
<g>
</g>
<g>
</g>
<g>
</g>
<g>
</g>
<g>
</g>
<g>
</g>
<g>
</g>
<g>
</g>
<g>
</g>
<g>
</g>
<g>
</g>
<g>
</g>
<g>
</g>
</svg>
