<?xml version="1.0" encoding="iso-8859-1"?>
<!-- Generator: Adobe Illustrator 16.0.0, SVG Export Plug-In . SVG Version: 6.00 Build 0)  -->
<!DOCTYPE svg PUBLIC "-//W3C//DTD SVG 1.1//EN" "http://www.w3.org/Graphics/SVG/1.1/DTD/svg11.dtd">
<svg version="1.1" id="Capa_1" xmlns="http://www.w3.org/2000/svg" xmlns:xlink="http://www.w3.org/1999/xlink" x="0px" y="0px"
	 width="19.07px" height="19.07px" viewBox="0 0 19.07 19.07" style="enable-background:new 0 0 19.07 19.07;" xml:space="preserve"
	>
<g>
	<g>
		<path d="M13.09,12.122c0.156-0.257,3.818-6.326,3.372-9.044C16.231,1.674,14.842,0,9.535,0C4.227,0,2.838,1.674,2.608,3.078
			c-0.446,2.718,3.216,8.788,3.345,8.988c0.026,0.07,0.62,1.735-0.548,3.293c-1.42,1.895-0.598,3.121-0.563,3.174l0.055,0.078
			l0.089,0.037c0.043,0.017,1.078,0.422,3.885,0.422c0.213,0,0.436-0.002,0.657-0.008c0.234,0.006,0.458,0.008,0.67,0.008l0,0
			c2.807,0,3.842-0.405,3.885-0.422l0.089-0.037l0.056-0.078c0.034-0.051,0.856-1.279-0.563-3.174
			C12.497,13.803,13.091,12.139,13.09,12.122z M3.36,4.726l0.003-0.002C3.233,4.14,3.178,3.607,3.247,3.183
			c0.344-2.095,3.609-2.535,6.287-2.535c2.679,0,5.945,0.44,6.289,2.535c0.069,0.424,0.014,0.958-0.115,1.543h-1.079
			c0,0-0.973,0.014-1.396,0.18c-0.584,0.229-0.678,0.483-0.368,1.296c0.594,1.566-0.012,3.321-0.514,3.333
			c-0.81,0.019-0.782-1.614-0.603-2.19c0.18-0.576,0.36-1.427-0.001-1.833c-0.36-0.405-0.623-0.514-1.178-0.565
			c-0.883-0.08-2.245,1.145-3.682,1.031C4.62,5.798,3.36,4.726,3.36,4.726z M13.739,18.082c-0.313,0.092-1.366,0.343-3.541,0.343
			c-0.208,0-0.427-0.003-0.67-0.008c-2.627,0.06-3.855-0.235-4.196-0.335C5.216,17.823,4.985,17,5.923,15.749
			c0.024-0.031,0.042-0.063,0.064-0.095c0.965,0.277,3.993,0.979,7.096,0.001c0.022,0.03,0.04,0.062,0.064,0.094
			C14.087,17.003,13.854,17.827,13.739,18.082z"/>
	</g>
</g>
<g>
</g>
<g>
</g>
<g>
</g>
<g>
</g>
<g>
</g>
<g>
</g>
<g>
</g>
<g>
</g>
<g>
</g>
<g>
</g>
<g>
</g>
<g>
</g>
<g>
</g>
<g>
</g>
<g>
</g>
</svg>
