<?xml version="1.0" encoding="iso-8859-1"?>
<!-- Generator: Adobe Illustrator 16.0.0, SVG Export Plug-In . SVG Version: 6.00 Build 0)  -->
<!DOCTYPE svg PUBLIC "-//W3C//DTD SVG 1.1//EN" "http://www.w3.org/Graphics/SVG/1.1/DTD/svg11.dtd">
<svg version="1.1" id="Capa_1" xmlns="http://www.w3.org/2000/svg" xmlns:xlink="http://www.w3.org/1999/xlink" x="0px" y="0px"
	 width="46.002px" height="46.003px" viewBox="0 0 46.002 46.003" style="enable-background:new 0 0 46.002 46.003;"
	 xml:space="preserve">
<g>
	<g>
		<path d="M24.725,44.98c-0.154-0.25-0.396-0.463-0.7-0.61c-0.637-7.584-0.645-11.44-0.027-18.914
			c2.955-0.21,5.198-1.36,6.663-3.445c4.803-6.833-0.271-21.157-0.489-21.763L30.083,0H15.921l-0.09,0.248
			c-0.218,0.606-5.291,14.931-0.489,21.763c1.465,2.085,3.708,3.235,6.663,3.445c0.618,7.474,0.61,11.331-0.027,18.914
			c-0.304,0.147-0.546,0.36-0.7,0.61c-4.281,0.092-7.521,0.514-7.521,1.022c8.922,0,10.991,0,18.489,0
			C32.246,45.495,29.006,45.072,24.725,44.98z M15.956,21.581c-4.247-6.042-0.16-18.886,0.496-20.831h13.101
			c0.656,1.946,4.745,14.785,0.497,20.83c-1.479,2.104-3.85,3.17-7.046,3.17C19.805,24.75,17.434,23.684,15.956,21.581z"/>
		<circle cx="25.495" cy="20.484" r="1.425"/>
		<circle cx="26.845" cy="16.883" r="0.925"/>
		<circle cx="19.295" cy="10.5" r="1.875"/>
		<circle cx="17.984" cy="6.546" r="1.056"/>
		<circle cx="19.748" cy="4.25" r="0.792"/>
		<circle cx="28.238" cy="19.058" r="0.607"/>
	</g>
</g>
<g>
</g>
<g>
</g>
<g>
</g>
<g>
</g>
<g>
</g>
<g>
</g>
<g>
</g>
<g>
</g>
<g>
</g>
<g>
</g>
<g>
</g>
<g>
</g>
<g>
</g>
<g>
</g>
<g>
</g>
</svg>
