<?xml version="1.0" encoding="iso-8859-1"?>
<!-- Generator: Adobe Illustrator 16.0.0, SVG Export Plug-In . SVG Version: 6.00 Build 0)  -->
<!DOCTYPE svg PUBLIC "-//W3C//DTD SVG 1.1//EN" "http://www.w3.org/Graphics/SVG/1.1/DTD/svg11.dtd">
<svg version="1.1" id="Capa_1" xmlns="http://www.w3.org/2000/svg" xmlns:xlink="http://www.w3.org/1999/xlink" x="0px" y="0px"
	 width="22.273px" height="22.273px" viewBox="0 0 22.273 22.273" style="enable-background:new 0 0 22.273 22.273;"
	 xml:space="preserve">
<g>
	<g>
		<path d="M13.102,21.277c1.889-2.896,3.203-9.711,3.203-14.017c0-0.803-0.053-1.63-0.158-2.457l-0.029-0.233l0.009-0.002
			c-0.003-0.01-0.011-0.026-0.015-0.038L16.109,4.51h-0.006c-0.171-0.525-1.033-1.816-2.297-2.743
			c-1.352-0.991-3.64-1.584-3.736-1.609L9.451,0l0.222,0.601C9.675,0.606,9.876,1.162,9.614,1.59
			C9.426,1.896,9.03,2.086,8.439,2.155C6.495,2.379,6.078,3.97,6.126,4.823C6.022,5.646,5.969,6.466,5.969,7.262
			c0,4.307,1.316,11.123,3.205,14.019l0.031,0.046l-0.419,0.946h4.724l-0.428-0.965L13.102,21.277z M8.515,2.822
			c0.811-0.094,1.374-0.393,1.675-0.888c0.201-0.332,0.241-0.689,0.226-0.979c0.739,0.228,2.114,0.706,2.993,1.353
			c1.07,0.785,1.726,1.749,1.965,2.204h-1.244c-0.115-0.315-0.299-0.678-0.582-0.878l-1.374-0.969c0,0,0.735,0.939,0.964,1.378
			c0.08,0.155,0.145,0.319,0.193,0.469h-1.717c-0.081-0.33-0.169-0.677-0.169-0.677l-0.367-1.17l-0.15,1.26
			c0,0-0.028,0.301-0.055,0.587H8.965c0.059-0.185,0.126-0.372,0.184-0.47c0.137-0.23,0.964-1.378,0.964-1.378l-1.374,0.97
			c-0.284,0.2-0.467,0.563-0.582,0.878H6.801C6.85,3.983,7.125,2.982,8.515,2.822z M6.64,7.262c0-0.679,0.04-1.377,0.118-2.079H8.57
			l0.007,0.001V5.183h2.594v0.001l0.008-0.001h2.53v0.001l0.007-0.001h1.801c0.078,0.701,0.118,1.399,0.118,2.079
			c0,4.125-1.275,10.688-2.998,13.498H9.639C7.916,17.949,6.64,11.388,6.64,7.262z"/>
		<path d="M12.462,20.371c1.577-2.725,2.751-8.642,2.844-12.655H7.001c0.093,4.014,1.266,9.931,2.846,12.657L12.462,20.371z"/>
	</g>
</g>
<g>
</g>
<g>
</g>
<g>
</g>
<g>
</g>
<g>
</g>
<g>
</g>
<g>
</g>
<g>
</g>
<g>
</g>
<g>
</g>
<g>
</g>
<g>
</g>
<g>
</g>
<g>
</g>
<g>
</g>
</svg>
