<?xml version="1.0" encoding="iso-8859-1"?>
<!-- Generator: Adobe Illustrator 16.0.0, SVG Export Plug-In . SVG Version: 6.00 Build 0)  -->
<!DOCTYPE svg PUBLIC "-//W3C//DTD SVG 1.1//EN" "http://www.w3.org/Graphics/SVG/1.1/DTD/svg11.dtd">
<svg version="1.1" id="Capa_1" xmlns="http://www.w3.org/2000/svg" xmlns:xlink="http://www.w3.org/1999/xlink" x="0px" y="0px"
	 width="35.566px" height="35.566px" viewBox="0 0 35.566 35.566" style="enable-background:new 0 0 35.566 35.566;"
	 xml:space="preserve">
<g>
	<g>
		<polygon points="8.911,26.982 26.654,26.982 27.538,17.769 8.028,17.769 		"/>
		<path d="M27.488,9.184H8.077c-0.223,0-0.436,0.094-0.586,0.259c-0.15,0.166-0.224,0.386-0.202,0.609l0.664,6.925h19.662
			l0.664-6.925c0.021-0.223-0.053-0.443-0.202-0.609C27.925,9.278,27.712,9.184,27.488,9.184z"/>
		<path d="M9.665,34.852c0.039,0.405,0.381,0.715,0.789,0.715h14.657c0.408,0,0.75-0.31,0.789-0.715l0.679-7.078H8.987L9.665,34.852
			z"/>
		<path d="M27.922,4.106h-0.025L25.52,0H10.405L8.028,4.106H7.644c-1.183,0-2.142,0.959-2.142,2.142S6.461,8.39,7.644,8.39h20.278
			c1.184,0,2.143-0.959,2.143-2.142S29.105,4.106,27.922,4.106z M19.893,2.499h-4.221c-0.246,0-0.446-0.2-0.446-0.446
			c0-0.246,0.2-0.446,0.446-0.446h4.221c0.246,0,0.446,0.2,0.446,0.446C20.339,2.299,20.139,2.499,19.893,2.499z"/>
	</g>
</g>
<g>
</g>
<g>
</g>
<g>
</g>
<g>
</g>
<g>
</g>
<g>
</g>
<g>
</g>
<g>
</g>
<g>
</g>
<g>
</g>
<g>
</g>
<g>
</g>
<g>
</g>
<g>
</g>
<g>
</g>
</svg>
