<?xml version="1.0" encoding="iso-8859-1"?>
<!-- Generator: Adobe Illustrator 16.0.0, SVG Export Plug-In . SVG Version: 6.00 Build 0)  -->
<!DOCTYPE svg PUBLIC "-//W3C//DTD SVG 1.1//EN" "http://www.w3.org/Graphics/SVG/1.1/DTD/svg11.dtd">
<svg version="1.1" id="Capa_1" xmlns="http://www.w3.org/2000/svg" xmlns:xlink="http://www.w3.org/1999/xlink" x="0px" y="0px"
	 width="95.083px" height="95.083px" viewBox="0 0 95.083 95.083" style="enable-background:new 0 0 95.083 95.083;"
	 xml:space="preserve">
<g>
	<g>
		<path d="M60.375,36.292c0-4.841-3.469-8.958-8.333-10.564V7.25h-9v18.478c-4.865,1.605-8.334,5.723-8.334,10.564
			c0,0.385,0.023,0.766,0.066,1.141c-0.035,0.213-0.066,0.428-0.066,0.65v53c0,2.209,1.791,4,4,4h17.667c2.209,0,4-1.791,4-4v-53
			c0-0.223-0.03-0.438-0.065-0.65C60.353,37.058,60.375,36.677,60.375,36.292z M47.541,66.044c-5.487,0-9.935-3.696-9.935-8.256
			s4.448-8.256,9.935-8.256c5.487,0,9.935,3.696,9.935,8.256S53.028,66.044,47.541,66.044z"/>
		<path d="M52.041,2c0-1.105-0.896-2-2-2h-5c-1.105,0-2,0.895-2,2v3.5h9V2z"/>
	</g>
</g>
<g>
</g>
<g>
</g>
<g>
</g>
<g>
</g>
<g>
</g>
<g>
</g>
<g>
</g>
<g>
</g>
<g>
</g>
<g>
</g>
<g>
</g>
<g>
</g>
<g>
</g>
<g>
</g>
<g>
</g>
</svg>
