<?xml version="1.0" encoding="iso-8859-1"?>
<!-- Generator: Adobe Illustrator 16.0.0, SVG Export Plug-In . SVG Version: 6.00 Build 0)  -->
<!DOCTYPE svg PUBLIC "-//W3C//DTD SVG 1.1//EN" "http://www.w3.org/Graphics/SVG/1.1/DTD/svg11.dtd">
<svg version="1.1" id="Capa_1" xmlns="http://www.w3.org/2000/svg" xmlns:xlink="http://www.w3.org/1999/xlink" x="0px" y="0px"
	 width="430.925px" height="430.925px" viewBox="0 0 430.925 430.925" style="enable-background:new 0 0 430.925 430.925;"
	 xml:space="preserve">
<g>
	<g>
		<path d="M262.875,10.195c24.133,2.18,40.823,3.536,40.823,3.536l0.819-9.95c-0.01,0-16.671-1.366-40.755-3.536
			c-10.38-0.98-18.417,0.99-24.007,5.672c-6.048,5.097-6.74,11.5-6.74,11.74l-4.204,23.353H126.704l2.478,6.721
			c27.621,75.106,28.353,112.555,2.317,185.153l-0.468-0.254l-2.926,9.58l0.351,0.204l-0.049,0.166l0.039,0.02
			c-1.36,6.087-2.039,12.174-2.039,18.134c0,38.297,26.45,66.508,66.234,73.121c-5.501,5.004-9.027,12.164-9.027,20.192
			c0,11.315,6.862,21.021,16.642,25.196c6.359,8.34,6.13,13.442-0.698,22.026c-25.542,1.404-44.74,7.442-44.74,14.671
			c0,8.271,25.147,14.983,56.187,14.983c31.035,0,56.183-6.712,56.183-14.983c0-7.229-19.197-13.267-44.735-14.671
			c-6.833-8.584-7.062-13.696-0.702-22.026c9.794-4.175,16.642-13.871,16.642-25.196c0-8.028-3.512-15.179-9.033-20.192
			c39.789-6.604,66.234-34.824,66.234-73.121c0-5.96-0.673-12.047-2.029-18.124l0.078-0.039l-0.039-0.176l0.312-0.194l-2.926-9.58
			l-0.469,0.254c-26.035-72.599-25.304-110.047,2.312-185.153L295.309,41h-56.333l3.941-21.953
			C243.033,17.965,244.691,8.557,262.875,10.195z M281.019,50.989c-26.465,74.277-25.812,114.74,1.863,190.178l0.497,1.795
			c1.482,5.979,2.225,11.949,2.225,17.763c0,44.638-37.458,64.615-74.6,64.615c-37.141,0-74.608-19.978-74.608-64.605
			c0-5.804,0.741-11.754,2.219-17.715l0.498-1.813c27.679-75.467,28.337-115.93,1.878-190.217h86.026l-9.823,54.529
			c-9.369,0-12.066,0-41.892,0c7.833,57.723,0.849,84.095-19.738,140.087c-1.278,4.76-2.029,9.734-2.029,14.904
			c0,31.732,25.724,50.237,57.455,50.237c31.732,0,57.465-18.505,57.465-50.237c0-5.17-0.761-10.154-2.028-14.904
			c-20.593-55.992-27.577-82.764-19.744-140.087c-8.506,0-14.632,0-19.354,0l9.813-54.529H281.019z M212.882,219.678
			c0,1.307-1.063,2.36-2.37,2.36c-1.308,0-2.366-1.054-2.366-2.36c0-1.317,1.058-2.371,2.366-2.371
			C211.818,217.307,212.882,218.36,212.882,219.678z M202.811,169.099c0.888,0,1.609,0.717,1.609,1.605
			c0,0.893-0.722,1.619-1.609,1.619s-1.62-0.717-1.62-1.619C201.191,169.816,201.923,169.099,202.811,169.099z M202.303,139.601
			c0-0.888,0.717-1.61,1.605-1.61c0.893,0,1.619,0.722,1.619,1.61s-0.717,1.619-1.619,1.619
			C203.02,141.22,202.303,140.489,202.303,139.601z M202.303,198.544c1.308,0,2.366,1.058,2.366,2.37
			c0,1.307-1.058,2.365-2.366,2.365c-1.312,0-2.38-1.058-2.38-2.365C199.923,199.602,200.991,198.544,202.303,198.544z
			 M202.811,237.245c0,2.01-1.629,3.639-3.634,3.639c-2.01,0-3.648-1.629-3.648-3.639c0-2.009,1.629-3.638,3.639-3.638
			C201.171,233.607,202.811,235.236,202.811,237.245z M197.396,185.799c-0.888,0-1.609-0.722-1.609-1.609s0.722-1.619,1.609-1.619
			s1.619,0.722,1.619,1.619C199.006,185.077,198.284,185.799,197.396,185.799z M196.616,160.578c-0.888,0-1.604-0.722-1.604-1.619
			c0-0.888,0.717-1.609,1.604-1.609c0.893,0,1.619,0.722,1.619,1.609C198.226,159.856,197.509,160.578,196.616,160.578z
			 M200.333,269.065c3.268,0,5.917,2.653,5.917,5.911c0,3.268-2.648,5.921-5.917,5.921c-3.263,0-5.902-2.663-5.902-5.931
			C194.431,271.709,197.079,269.065,200.333,269.065z M189.705,205.596c0,1.288-1.049,2.336-2.336,2.336
			c-1.297,0-2.336-1.049-2.336-2.336c0-1.297,1.049-2.336,2.336-2.336S189.705,204.309,189.705,205.596z M180.355,250.336
			c2.58,0,4.667,2.088,4.667,4.663c0,2.585-2.087,4.673-4.667,4.673c-2.575,0-4.663-2.088-4.663-4.673
			C175.702,252.414,177.79,250.336,180.355,250.336z M178.936,226.652c0-1.542,1.259-2.8,2.81-2.8c1.546,0,2.805,1.258,2.805,2.8
			c0,1.551-1.259,2.809-2.805,2.809C180.194,229.461,178.936,228.203,178.936,226.652z"/>
	</g>
</g>
<g>
</g>
<g>
</g>
<g>
</g>
<g>
</g>
<g>
</g>
<g>
</g>
<g>
</g>
<g>
</g>
<g>
</g>
<g>
</g>
<g>
</g>
<g>
</g>
<g>
</g>
<g>
</g>
<g>
</g>
</svg>
