<?xml version="1.0" encoding="iso-8859-1"?>
<!-- Generator: Adobe Illustrator 16.0.0, SVG Export Plug-In . SVG Version: 6.00 Build 0)  -->
<!DOCTYPE svg PUBLIC "-//W3C//DTD SVG 1.1//EN" "http://www.w3.org/Graphics/SVG/1.1/DTD/svg11.dtd">
<svg version="1.1" id="Capa_1" xmlns="http://www.w3.org/2000/svg" xmlns:xlink="http://www.w3.org/1999/xlink" x="0px" y="0px"
	 width="8.425px" height="8.425px" viewBox="0 0 8.425 8.425" style="enable-background:new 0 0 8.425 8.425;" xml:space="preserve"
	>
<g>
	<g>
		<path d="M6.053,0.693c-0.33,0.048-0.625,0.196-0.854,0.413L6.125,1.93L6.053,0.693z"/>
		<path d="M7.832,2.276L6.594,2.348L7.52,3.172C7.708,2.92,7.823,2.61,7.832,2.276z"/>
		<path d="M6.385,1.917l0.823-0.926C6.957,0.8,6.647,0.686,6.313,0.678L6.385,1.917z"/>
		<path d="M6.493,3.78c0.33-0.047,0.625-0.195,0.854-0.413L6.42,2.542L6.493,3.78z"/>
		<path d="M6.233,3.795L6.164,2.602L5.392,3.518C5.633,3.685,5.921,3.788,6.233,3.795z"/>
		<path d="M4.724,2.103h1.203l-0.9-0.802C4.855,1.529,4.75,1.805,4.724,2.103z"/>
		<path d="M6.579,2.088l1.238-0.072C7.77,1.686,7.621,1.391,7.404,1.163L6.579,2.088z"/>
		<path d="M8.421,2.112C8.353,0.927,7.333,0.019,6.148,0.088C5.05,0.151,4.192,1.033,4.126,2.103h0.348
			c0.066-0.889,0.78-1.616,1.694-1.669c0.994-0.058,1.851,0.704,1.907,1.698C8.133,3.126,7.372,3.981,6.377,4.04
			c-0.425,0.024-0.823-0.102-1.146-0.33L5.005,3.975c0.39,0.284,0.874,0.44,1.392,0.41C7.583,4.316,8.491,3.297,8.421,2.112z"/>
		<path d="M4.34,8.209L3.235,7.885V5.87l2.877-3.413c0.033-0.04,0.041-0.096,0.019-0.143C6.109,2.267,6.061,2.236,6.01,2.236H0.133
			c-0.052,0-0.099,0.03-0.121,0.077s-0.014,0.104,0.019,0.143l2.901,3.441v1.98l-1.13,0.332C1.77,8.219,1.749,8.25,1.754,8.284
			C1.759,8.316,1.787,8.34,1.82,8.34h2.501c0.033,0,0.061-0.025,0.066-0.057C4.393,8.25,4.372,8.219,4.34,8.209z M0.42,2.504h0.596
			l1.589,2.593L0.42,2.504z"/>
	</g>
</g>
<g>
</g>
<g>
</g>
<g>
</g>
<g>
</g>
<g>
</g>
<g>
</g>
<g>
</g>
<g>
</g>
<g>
</g>
<g>
</g>
<g>
</g>
<g>
</g>
<g>
</g>
<g>
</g>
<g>
</g>
</svg>
