<?xml version="1.0" encoding="iso-8859-1"?>
<!-- Generator: Adobe Illustrator 16.0.0, SVG Export Plug-In . SVG Version: 6.00 Build 0)  -->
<!DOCTYPE svg PUBLIC "-//W3C//DTD SVG 1.1//EN" "http://www.w3.org/Graphics/SVG/1.1/DTD/svg11.dtd">
<svg version="1.1" id="Capa_1" xmlns="http://www.w3.org/2000/svg" xmlns:xlink="http://www.w3.org/1999/xlink" x="0px" y="0px"
	 width="29.019px" height="29.019px" viewBox="0 0 29.019 29.019" style="enable-background:new 0 0 29.019 29.019;"
	 xml:space="preserve">
<g>
	<g>
		<polygon points="10.374,7.507 11.407,9.722 8.712,9.722 15.07,16.411 14.509,16.997 5.425,7.507 		"/>
		<polygon points="10.961,7.507 23.593,7.507 21.472,9.722 11.994,9.722 		"/>
		<path d="M13.781,18.544v9.103c-1.848,0.111-3.393,0.644-4.133,1.372h9.721c-0.74-0.729-2.285-1.261-4.133-1.372v-9.103
			L26.038,7.26c0.221-0.231,0.283-0.571,0.157-0.865C26.07,6.101,25.781,5.91,25.461,5.91H10.217L9.189,3.707
			c0.779-0.497,1.114-1.451,0.741-2.25C9.557,0.656,8.611,0.3,7.73,0.578L7.532,0.154C7.47,0.02,7.311-0.037,7.178,0.025
			s-0.191,0.22-0.129,0.354l0.198,0.424C6.468,1.3,6.133,2.254,6.506,3.053c0.373,0.8,1.319,1.156,2.201,0.878L9.63,5.91H3.557
			c-0.319,0-0.608,0.191-0.734,0.485C2.698,6.689,2.759,7.03,2.981,7.26L13.781,18.544z M7.762,1.797
			c0,0.217-0.176,0.393-0.393,0.393c-0.217,0-0.393-0.176-0.393-0.393c0-0.217,0.176-0.393,0.393-0.393
			C7.586,1.404,7.762,1.58,7.762,1.797z M11.994,9.722l-1.033-2.215h12.632l-2.121,2.216L11.994,9.722L11.994,9.722z M5.425,7.507
			h4.949l1.033,2.216H8.712l6.358,6.689l-0.561,0.586L5.425,7.507z"/>
	</g>
</g>
<g>
</g>
<g>
</g>
<g>
</g>
<g>
</g>
<g>
</g>
<g>
</g>
<g>
</g>
<g>
</g>
<g>
</g>
<g>
</g>
<g>
</g>
<g>
</g>
<g>
</g>
<g>
</g>
<g>
</g>
</svg>
