<?xml version="1.0" encoding="iso-8859-1"?>
<!-- Generator: Adobe Illustrator 16.0.0, SVG Export Plug-In . SVG Version: 6.00 Build 0)  -->
<!DOCTYPE svg PUBLIC "-//W3C//DTD SVG 1.1//EN" "http://www.w3.org/Graphics/SVG/1.1/DTD/svg11.dtd">
<svg version="1.1" id="Capa_1" xmlns="http://www.w3.org/2000/svg" xmlns:xlink="http://www.w3.org/1999/xlink" x="0px" y="0px"
	 width="23.495px" height="23.495px" viewBox="0 0 23.495 23.495" style="enable-background:new 0 0 23.495 23.495;"
	 xml:space="preserve">
<g>
	<path d="M23.131,0.822c0.125-0.148,0.152-0.356,0.07-0.533C23.119,0.113,22.941,0,22.748,0h-22C0.554,0,0.375,0.113,0.293,0.289
		C0.211,0.466,0.24,0.674,0.365,0.822l10.858,12.884v8.25c-2.094,0.112-3.846,0.713-4.641,1.539h10.707
		c-0.83-0.863-2.707-1.476-4.927-1.548V13.6L23.131,0.822z M13.492,10.706L19.441,1h2.231L13.492,10.706z M4.054,1l5.949,9.706
		L1.823,1H4.054z"/>
</g>
<g>
</g>
<g>
</g>
<g>
</g>
<g>
</g>
<g>
</g>
<g>
</g>
<g>
</g>
<g>
</g>
<g>
</g>
<g>
</g>
<g>
</g>
<g>
</g>
<g>
</g>
<g>
</g>
<g>
</g>
</svg>
