<?xml version="1.0" encoding="iso-8859-1"?>
<!-- Generator: Adobe Illustrator 16.0.0, SVG Export Plug-In . SVG Version: 6.00 Build 0)  -->
<!DOCTYPE svg PUBLIC "-//W3C//DTD SVG 1.1//EN" "http://www.w3.org/Graphics/SVG/1.1/DTD/svg11.dtd">
<svg version="1.1" id="Capa_1" xmlns="http://www.w3.org/2000/svg" xmlns:xlink="http://www.w3.org/1999/xlink" x="0px" y="0px"
	 width="39.759px" height="39.76px" viewBox="0 0 39.759 39.76" style="enable-background:new 0 0 39.759 39.76;"
	 xml:space="preserve">
<g>
	<g>
		<path d="M32.183,0.012c-4.188-0.234-7.739,2.978-7.973,7.121c-0.01,0.16-0.012,0.319-0.011,0.478H1.729H0.447v1.282
			c0,2.734,1.323,5.373,3.724,7.432c2.022,1.733,4.734,2.987,7.727,3.59v1.956c0,1.413,1.15,2.562,2.563,2.562h0.21v11.743
			c-2.552,0.084-5.688,0.456-5.688,1.781c0,1.567,4.391,1.802,7.009,1.802s7.01-0.234,7.01-1.802c0-1.325-3.137-1.698-5.688-1.781
			V24.433h0.244c1.413,0,2.563-1.149,2.563-2.562v-1.939c3.989-0.781,7.293-2.677,9.329-5.17c0.602,0.192,1.232,0.309,1.879,0.346
			c0.145,0.008,0.289,0.012,0.432,0.012c4.004,0,7.315-3.133,7.541-7.133C39.539,3.824,36.345,0.247,32.183,0.012z M21.328,37.958
			c-0.867,0.249-2.638,0.521-5.235,0.521s-4.368-0.271-5.235-0.521c0.867-0.249,2.638-0.521,5.235-0.521
			S20.462,37.708,21.328,37.958z M28.837,13.477c-0.189,0.263-0.393,0.519-0.611,0.769c-2.061,2.344-5.432,4.049-9.388,4.601
			c0,0.011,0.003,0.021,0.003,0.033v2.991c0,0.708-0.574,1.281-1.282,1.281h-3.097c-0.708,0-1.282-0.573-1.282-1.281V18.88
			c0-0.015,0.004-0.029,0.004-0.044C6.648,17.893,1.729,13.8,1.729,8.892c5.617,0,15.416,0,22.587,0c0.334,0,0.662,0,0.984,0
			c1.994,0,3.744,0,5.084,0C30.382,10.543,29.824,12.1,28.837,13.477z M38.343,7.931c-0.203,3.617-3.304,6.425-6.959,6.215
			c-0.451-0.025-0.893-0.097-1.32-0.21c1.027-1.53,1.601-3.246,1.601-5.044V7.611h-1.282h-5.215
			c-0.002-0.141-0.006-0.282,0.002-0.424c0.197-3.491,3.088-6.226,6.582-6.226c0.125,0,0.25,0.004,0.377,0.011
			c1.76,0.099,3.375,0.878,4.549,2.193C37.851,4.479,38.444,6.172,38.343,7.931z"/>
		<path d="M31.331,5.513l0.179-3.153c-0.561,0.026-1.098,0.144-1.6,0.336L31.331,5.513z"/>
		<path d="M27.728,4.273L30.365,6l-1.42-2.815C28.485,3.482,28.074,3.849,27.728,4.273z"/>
		<path d="M26.619,6.727l3.153,0.178l-2.64-1.729C26.886,5.654,26.708,6.174,26.619,6.727z"/>
		<path d="M36.13,4.747c-0.297-0.46-0.664-0.871-1.088-1.217l-1.728,2.637L36.13,4.747z"/>
		<path d="M32.589,2.422l-0.179,3.153l1.729-2.639C33.662,2.689,33.142,2.511,32.589,2.422z"/>
		<path d="M33.802,7.133l3.153,0.178c-0.026-0.56-0.146-1.096-0.336-1.599L33.802,7.133z"/>
		<path d="M34.569,11.933c0.46-0.296,0.871-0.663,1.217-1.087l-2.637-1.728L34.569,11.933z"/>
		<path d="M32.005,12.758c0.56-0.026,1.096-0.145,1.599-0.336l-1.421-2.817L32.005,12.758z"/>
		<path d="M36.38,9.942c0.248-0.478,0.426-0.998,0.515-1.551l-3.153-0.178L36.38,9.942z"/>
		<path d="M24.835,10.601c-6.029,0-15.675,0-20.749,0c0.526,3.364,5.516,6.729,11.968,6.729c4.845,0,8.74-1.684,10.697-4.108
			c0.207-0.257,0.389-0.522,0.553-0.794c0.347-0.58,0.592-1.193,0.719-1.827c-0.604,0-1.318,0-2.115,0
			C25.566,10.601,25.207,10.601,24.835,10.601z"/>
	</g>
</g>
<g>
</g>
<g>
</g>
<g>
</g>
<g>
</g>
<g>
</g>
<g>
</g>
<g>
</g>
<g>
</g>
<g>
</g>
<g>
</g>
<g>
</g>
<g>
</g>
<g>
</g>
<g>
</g>
<g>
</g>
</svg>
