<?xml version="1.0" encoding="iso-8859-1"?>
<!-- Generator: Adobe Illustrator 16.0.0, SVG Export Plug-In . SVG Version: 6.00 Build 0)  -->
<!DOCTYPE svg PUBLIC "-//W3C//DTD SVG 1.1//EN" "http://www.w3.org/Graphics/SVG/1.1/DTD/svg11.dtd">
<svg version="1.1" id="Capa_1" xmlns="http://www.w3.org/2000/svg" xmlns:xlink="http://www.w3.org/1999/xlink" x="0px" y="0px"
	 width="14.161px" height="14.16px" viewBox="0 0 14.161 14.16" style="enable-background:new 0 0 14.161 14.16;"
	 xml:space="preserve">
<g>
	<g>
		<path d="M13.466,2.799c-0.089-1.63-1.486-2.884-3.117-2.795c-1.431,0.078-2.57,1.164-2.77,2.529H0.712L0.691,2.709
			c-0.008,0.071-0.053,0.71,1,1.335C2.305,4.41,4.169,5.518,4.153,6.307V7.21c0,0.734,0.517,1.354,1.206,1.525v4.74
			c-0.226,0.115-1.032,0.362-1.895,0.446c-0.701,0.141-0.52,0.238-0.52,0.238h2.256h0.375h2.95c0,0,0.181-0.098-0.521-0.238
			c-0.864-0.084-1.669-0.331-1.895-0.446V8.729c0.674-0.18,1.178-0.795,1.178-1.52V6.302C7.28,5.896,7.777,5.403,8.341,4.973
			c0.577,0.623,1.417,0.994,2.33,0.944C12.301,5.829,13.556,4.43,13.466,2.799z M5.73,8.387H5.722H5.712
			C5.073,8.375,4.555,7.847,4.555,7.21V6.311c0.018-0.898-1.334-1.824-2.658-2.61C1.389,3.398,1.201,3.11,1.13,2.935h0.813
			C2.079,3.1,2.283,3.285,2.597,3.472c0.971,0.577,2.577,1.581,2.56,2.434v0.903c0,0.708,0.536,1.283,1.224,1.362
			C6.328,8.199,6.01,8.382,5.73,8.387z M10.648,5.478C9.89,5.519,9.192,5.217,8.701,4.71c0.416-0.289,0.82-0.529,1.05-0.665
			c1.054-0.626,1.009-1.264,1-1.335l-0.021-0.177H8.028c0.195-1.133,1.149-2.025,2.345-2.09c1.388-0.076,2.579,0.992,2.654,2.38
			C13.104,4.211,12.036,5.401,10.648,5.478z"/>
		<path d="M10.616,0.846l0.07,1.283l0.58-1.145C11.062,0.906,10.842,0.856,10.616,0.846z"/>
		<path d="M12.152,1.626c-0.142-0.173-0.308-0.322-0.494-0.443l-0.58,1.144L12.152,1.626z"/>
		<path d="M9.544,1.078l0.701,1.075l-0.07-1.283C9.951,0.906,9.74,0.978,9.544,1.078z"/>
		<path d="M8.734,1.813l1.144,0.58L9.176,1.318C9.003,1.459,8.855,1.626,8.734,1.813z"/>
		<path d="M9.754,4.938c0.204,0.078,0.423,0.127,0.65,0.138l-0.07-1.283L9.754,4.938z"/>
		<path d="M12.601,2.626c-0.036-0.225-0.108-0.437-0.208-0.631l-1.074,0.701L12.601,2.626z"/>
		<path d="M11.843,4.602c0.174-0.141,0.322-0.307,0.443-0.494l-1.144-0.58L11.843,4.602z"/>
		<path d="M12.487,3.715c0.078-0.204,0.127-0.423,0.138-0.65l-1.283,0.07L12.487,3.715z"/>
		<path d="M10.844,5.05c0.226-0.036,0.438-0.108,0.632-0.208l-0.701-1.075L10.844,5.05z"/>
	</g>
</g>
<g>
</g>
<g>
</g>
<g>
</g>
<g>
</g>
<g>
</g>
<g>
</g>
<g>
</g>
<g>
</g>
<g>
</g>
<g>
</g>
<g>
</g>
<g>
</g>
<g>
</g>
<g>
</g>
<g>
</g>
</svg>
