<?xml version="1.0" encoding="iso-8859-1"?>
<!-- Generator: Adobe Illustrator 16.0.0, SVG Export Plug-In . SVG Version: 6.00 Build 0)  -->
<!DOCTYPE svg PUBLIC "-//W3C//DTD SVG 1.1//EN" "http://www.w3.org/Graphics/SVG/1.1/DTD/svg11.dtd">
<svg version="1.1" id="Capa_1" xmlns="http://www.w3.org/2000/svg" xmlns:xlink="http://www.w3.org/1999/xlink" x="0px" y="0px"
	 width="25.292px" height="25.292px" viewBox="0 0 25.292 25.292" style="enable-background:new 0 0 25.292 25.292;"
	 xml:space="preserve">
<g>
	<g>
		<path d="M20.529,6.57l-0.187-0.073h-3.254l0.36-2.25L1.503,2.659l2.051,4.744C1.38,9.149,0,11.708,0,14.57
			c0,2.485,1.046,4.743,2.744,6.438H18c1.698-1.695,2.744-3.953,2.744-6.438c0-2.255-0.857-4.325-2.285-5.956h1.455
			c0.906,0.447,4.967,2.894,2.453,9.845c-0.199,0.55,0.086,1.156,0.635,1.355c0.119,0.043,0.24,0.063,0.359,0.063
			c0.434,0,0.841-0.268,0.996-0.699C27.139,11.489,23.07,7.569,20.529,6.57z M19.214,12.541H1.53
			c0.355-1.994,1.488-3.745,3.102-4.986h11.47c0.42,0.322,0.812,0.672,1.162,1.058C18.26,9.717,18.951,11.062,19.214,12.541z"/>
		<path d="M18,21.641H3.182c-0.219,0-0.397,0.222-0.397,0.496c0,0.273,0.178,0.496,0.397,0.496H18c0.219,0,0.396-0.223,0.396-0.496
			C18.396,21.863,18.219,21.641,18,21.641z"/>
	</g>
</g>
<g>
</g>
<g>
</g>
<g>
</g>
<g>
</g>
<g>
</g>
<g>
</g>
<g>
</g>
<g>
</g>
<g>
</g>
<g>
</g>
<g>
</g>
<g>
</g>
<g>
</g>
<g>
</g>
<g>
</g>
</svg>
