<?xml version="1.0" encoding="iso-8859-1"?>
<!-- Generator: Adobe Illustrator 16.0.0, SVG Export Plug-In . SVG Version: 6.00 Build 0)  -->
<!DOCTYPE svg PUBLIC "-//W3C//DTD SVG 1.1//EN" "http://www.w3.org/Graphics/SVG/1.1/DTD/svg11.dtd">
<svg version="1.1" id="Capa_1" xmlns="http://www.w3.org/2000/svg" xmlns:xlink="http://www.w3.org/1999/xlink" x="0px" y="0px"
	 width="17.893px" height="17.894px" viewBox="0 0 17.893 17.894" style="enable-background:new 0 0 17.893 17.894;"
	 xml:space="preserve">
<g>
	<path d="M12.955,3.584c-0.004-0.009-0.009-0.019-0.013-0.027c-0.014-0.046-0.028-0.099-0.045-0.157
		c-0.146-0.521-0.446-1.605-1.348-2.267c-0.638-0.469-1.74-0.806-3.276-0.999L7.742,0.009C7.656-0.013,7.568,0.005,7.5,0.059
		C7.432,0.11,7.39,0.191,7.389,0.278c0,0.008-0.022,0.853-0.689,1.535c-0.254,0.259-0.449,0.37-0.655,0.487
		C5.755,2.467,5.457,2.638,5.094,3.18C4.884,3.511,4.87,3.923,4.862,4.144C4.854,4.223,4.879,4.303,4.934,4.362
		c0.053,0.059,0.13,0.094,0.209,0.094C5.085,4.985,5.049,5.511,5.049,6.024c0,3.244,0.992,8.379,2.414,10.56l0.023,0.035
		l-0.018,0.04c-0.541,0.281-1.005,0.705-1.339,1.234h5.624c-0.33-0.523-0.786-0.943-1.318-1.225l-0.028-0.063l0.015-0.023
		c1.424-2.182,2.415-7.315,2.415-10.558c0-0.514-0.035-1.04-0.092-1.568c0.142-0.001,0.262-0.106,0.279-0.249
		C13.062,3.891,12.965,3.614,12.955,3.584z M12.353,3.55c0.023,0.088,0.045,0.161,0.063,0.219c0.004,0.013,0.01,0.025,0.015,0.038
		c0.007,0.02,0.014,0.049,0.021,0.085h-1.597c-0.007-1.645-0.902-2.558-1.688-3.041c1.139,0.223,1.742,0.512,2.05,0.737
		C11.958,2.133,12.214,3.056,12.353,3.55z M8.155,3.892C8.77,2.84,8.666,1.81,8.448,1.097c0.709,0.309,1.834,1.069,1.842,2.795
		H8.155z M5.567,3.486c0.284-0.424,0.493-0.543,0.757-0.693c0.221-0.126,0.47-0.268,0.779-0.583c0.398-0.405,0.608-0.856,0.72-1.221
		C8.078,1.625,8.312,2.76,7.479,3.893H5.444C5.46,3.758,5.494,3.604,5.567,3.486z M12.275,7.415H5.611
		c-0.035-0.49-0.056-0.959-0.056-1.391c0-0.511,0.03-1.037,0.089-1.566h1.365l0.005,0.001V4.458h1.954v0.001l0.005-0.001h1.907
		v0.001l0.005-0.001h1.356c0.059,0.528,0.089,1.053,0.089,1.566C12.331,6.455,12.311,6.925,12.275,7.415z"/>
</g>
<g>
</g>
<g>
</g>
<g>
</g>
<g>
</g>
<g>
</g>
<g>
</g>
<g>
</g>
<g>
</g>
<g>
</g>
<g>
</g>
<g>
</g>
<g>
</g>
<g>
</g>
<g>
</g>
<g>
</g>
</svg>
