<?xml version="1.0" encoding="iso-8859-1"?>
<!-- Generator: Adobe Illustrator 16.0.0, SVG Export Plug-In . SVG Version: 6.00 Build 0)  -->
<!DOCTYPE svg PUBLIC "-//W3C//DTD SVG 1.1//EN" "http://www.w3.org/Graphics/SVG/1.1/DTD/svg11.dtd">
<svg version="1.1" id="Capa_1" xmlns="http://www.w3.org/2000/svg" xmlns:xlink="http://www.w3.org/1999/xlink" x="0px" y="0px"
	 width="19.695px" height="19.695px" viewBox="0 0 19.695 19.695" style="enable-background:new 0 0 19.695 19.695;"
	 xml:space="preserve">
<g>
	<g>
		<path d="M10.441,9.3c-0.142,0.011-0.286,0.035-0.43,0.057C9.897,8.789,9.739,8.23,9.505,7.696C8.444,5.266,6.417,3.634,4.46,3.634
			c-0.454,0-0.889,0.09-1.293,0.267C1,4.847,0.316,8.09,1.645,11.13c0.589,1.349,1.496,2.456,2.561,3.187
			c-0.614,1.699-0.424,3.336,0.592,4.373c0.535,0.545,1.259,0.885,2.096,0.979c1.68,0.189,3.674-0.625,5.205-2.123
			c2.37-2.32,2.951-5.585,1.296-7.273C12.694,9.557,11.644,9.209,10.441,9.3z M4.981,5.117l0.097-0.41
			c1.358,0.315,2.739,1.621,3.511,3.39c0.199,0.455,0.35,0.928,0.45,1.41c-0.51,0.143-1.016,0.36-1.497,0.644
			c-0.18-0.285-0.393-0.569-0.643-0.858l-0.225-0.26C4.892,6.973,4.618,6.656,4.981,5.117z M5.919,9.687l0.224,0.259
			c0.262,0.303,0.461,0.596,0.632,0.889c-0.052,0.041-0.102,0.089-0.154,0.131c-0.143-0.196-0.295-0.388-0.475-0.577
			c-1.198-1.14-1.894-2.209-2.043-3.133C4.416,7.949,5.016,8.644,5.919,9.687z M2.561,10.73C1.453,8.195,1.905,5.543,3.567,4.817
			C3.743,4.74,3.928,4.688,4.121,4.659C3.864,4.866,3.176,5.522,3.083,6.641C2.97,8.005,3.77,9.51,5.438,11.091
			c0.141,0.15,0.265,0.3,0.382,0.462c-0.131,0.137-0.259,0.277-0.382,0.43c-0.348,0.427-0.65,0.883-0.903,1.362
			C3.721,12.718,3.031,11.809,2.561,10.73z M5.59,13.68c0.325-0.565,0.73-1.087,1.203-1.55c0.213-0.209,0.438-0.39,0.664-0.565
			c0.327-0.252,0.628-0.451,0.919-0.611c0.69-0.376,1.43-0.604,2.138-0.655c0.243-0.018,0.478-0.014,0.699,0.011
			c0.608,0.068,1.101,0.293,1.465,0.664c0.138,0.139,0.253,0.295,0.347,0.463c-0.173-0.101-0.564-0.295-1.1-0.355
			c-0.709-0.08-1.427,0.111-2.073,0.551c-0.644,0.438-1.242,1.145-1.777,2.1c-0.24,0.43-0.434,0.826-0.598,1.22
			c-0.87,1.782-1.888,1.782-1.919,1.78L4.88,16.684C4.741,15.805,4.979,14.739,5.59,13.68z M10.569,12.359
			c-0.527,0.537-0.96,1.34-1.606,2.539L8.8,15.201c-0.467,0.865-0.975,1.441-1.501,1.706c0.368-0.349,0.747-0.843,1.09-1.548
			c0.161-0.385,0.339-0.748,0.56-1.142c0.459-0.819,0.952-1.411,1.468-1.762C10.467,12.421,10.518,12.389,10.569,12.359z
			 M11.397,16.831c-1.321,1.293-3.004,2-4.392,1.844l0,0c-0.614-0.069-1.116-0.299-1.493-0.685
			c-0.107-0.109-0.202-0.229-0.283-0.358c0.218,0.164,2.469,1.722,4.452-1.957l0.163-0.303c1.291-2.396,1.49-2.765,3.056-2.972
			l0.424-0.057C13.513,13.697,12.814,15.441,11.397,16.831z"/>
		<path d="M18.686,2.863h0.002l-0.002-0.002c-0.104-0.703-0.397-1.345-0.892-1.853C17.16,0.358,16.259,0,15.252,0
			c-1.353,0-2.767,0.621-3.878,1.704c-0.956,0.931-1.581,2.094-1.76,3.275c-0.059,0.39-0.068,0.767-0.028,1.125l0.01,0.082
			c0.098,0.744,0.407,1.402,0.908,1.917c0.633,0.65,1.536,1.009,2.542,1.009c0.001,0,0.001,0,0.001,0
			c1.352,0,2.765-0.621,3.878-1.704C18.285,6.083,18.902,4.34,18.686,2.863z M10.618,6.231c-0.067-0.34-0.073-0.711-0.015-1.102
			c0.146-0.968,0.667-1.93,1.467-2.708C12.999,1.518,14.157,1,15.252,1c0.744,0,1.376,0.244,1.824,0.706
			c0.042,0.043,0.081,0.087,0.119,0.133c-0.265-0.117-0.64-0.234-1.086-0.234c-0.985,0-2.381,0.576-3.409,3.294
			c-0.601,1.33-1.348,1.402-1.51,1.402L10.618,6.231z M15.124,2.953c-0.361,0.451-0.683,1.087-1.128,1.969l-0.128,0.254
			c-0.221,0.438-0.535,0.929-0.938,1.222c0.242-0.278,0.479-0.643,0.693-1.116C14.052,4.154,14.56,3.37,15.124,2.953z M16.228,6.69
			C15.3,7.593,14.14,8.111,13.047,8.111c-0.722,0-1.335-0.229-1.781-0.662c0.237,0.108,0.559,0.208,0.936,0.208
			c0.699,0,1.711-0.353,2.562-2.03l0.129-0.255c1.027-2.036,1.159-2.298,2.461-2.402l0.342-0.027
			C17.901,4.114,17.378,5.571,16.228,6.69z"/>
	</g>
</g>
<g>
</g>
<g>
</g>
<g>
</g>
<g>
</g>
<g>
</g>
<g>
</g>
<g>
</g>
<g>
</g>
<g>
</g>
<g>
</g>
<g>
</g>
<g>
</g>
<g>
</g>
<g>
</g>
<g>
</g>
</svg>
