<?xml version="1.0" encoding="iso-8859-1"?>
<!-- Generator: Adobe Illustrator 16.0.0, SVG Export Plug-In . SVG Version: 6.00 Build 0)  -->
<!DOCTYPE svg PUBLIC "-//W3C//DTD SVG 1.1//EN" "http://www.w3.org/Graphics/SVG/1.1/DTD/svg11.dtd">
<svg version="1.1" id="Capa_1" xmlns="http://www.w3.org/2000/svg" xmlns:xlink="http://www.w3.org/1999/xlink" x="0px" y="0px"
	 width="33.227px" height="33.227px" viewBox="0 0 33.227 33.227" style="enable-background:new 0 0 33.227 33.227;"
	 xml:space="preserve">
<g>
	<g>
		<path d="M7.903,25.263c-3.235-2.532-2.954-7.173-2.954-7.173H3.328c-0.092,0.524-0.154,1.068-0.154,1.647
			c0,6.126,5.334,9.209,11.914,9.209s11.914-3.084,11.914-9.209c0-0.58-0.062-1.123-0.154-1.647H6.424
			C6.424,18.09,6.075,21.676,7.903,25.263z"/>
		<path d="M32.939,16.81c-0.774-1.16-1.125-6.329-1.125-6.329s0.598-6.716-3.623-5.978c-3.217,0.563-4.918,0.241-5.547,0.056
			c-0.088-0.05-0.186-0.086-0.291-0.102L4.023,1.644c-0.388-0.06-0.766,0.157-0.912,0.521C2.966,2.53,3.091,2.947,3.414,3.171
			l3.692,2.561v3.627C2.635,11.272,0,14.938,0,19.738c0,7.201,5.922,11.854,15.087,11.854s15.087-4.653,15.087-11.854
			c0-4.766-2.599-8.411-7.011-10.333c1.782-1.352,5.563-3.737,6.47-0.435c1.196,4.36,1.125,6.329,2.672,9.001
			C32.729,18.322,33.712,17.971,32.939,16.81z M8.794,8.667V5.292c0-0.276-0.136-0.536-0.363-0.693L7.376,3.866l14.005,2.149v2.651
			h-0.279H9.073L8.794,8.667L8.794,8.667z M28.486,19.738c0,4.914-3.52,10.166-13.398,10.166c-9.88,0-13.4-5.252-13.4-10.166
			c0-3.773,2.08-7.743,7.516-9.384h11.767C26.407,11.995,28.486,15.965,28.486,19.738z"/>
	</g>
</g>
<g>
</g>
<g>
</g>
<g>
</g>
<g>
</g>
<g>
</g>
<g>
</g>
<g>
</g>
<g>
</g>
<g>
</g>
<g>
</g>
<g>
</g>
<g>
</g>
<g>
</g>
<g>
</g>
<g>
</g>
</svg>
