<?xml version="1.0" encoding="iso-8859-1"?>
<!-- Generator: Adobe Illustrator 16.0.0, SVG Export Plug-In . SVG Version: 6.00 Build 0)  -->
<!DOCTYPE svg PUBLIC "-//W3C//DTD SVG 1.1//EN" "http://www.w3.org/Graphics/SVG/1.1/DTD/svg11.dtd">
<svg version="1.1" id="Capa_1" xmlns="http://www.w3.org/2000/svg" xmlns:xlink="http://www.w3.org/1999/xlink" x="0px" y="0px"
	 width="39.259px" height="39.26px" viewBox="0 0 39.259 39.26" style="enable-background:new 0 0 39.259 39.26;"
	 xml:space="preserve">
<g>
	<g>
		<path d="M35.336,0.307C35.153,0.111,34.898,0,34.629,0h-30C4.362,0,4.106,0.111,3.924,0.307C3.742,0.503,3.648,0.765,3.667,1.032
			l2.574,37.329c0.035,0.506,0.456,0.898,0.963,0.898h24.852c0.507,0,0.928-0.393,0.963-0.898l2.574-37.329
			C35.612,0.765,35.518,0.502,35.336,0.307z M31.456,32.979H7.805L5.664,1.931h27.932L31.456,32.979z"/>
		<path d="M9.381,31.697h20.499l1.635-22.043h-2.539c-0.008-0.217-0.115-0.427-0.318-0.541l-6.463-3.608
			c-0.15-0.084-0.326-0.104-0.488-0.057c-0.164,0.047-0.305,0.157-0.388,0.305l-2.179,3.901H7.746L9.381,31.697z M27.467,9.924
			l-2.981,5.339l-5.339-2.982l2.982-5.339L27.467,9.924z M27.45,23.803l-2.9,5.383l-5.383-2.898l2.899-5.383L27.45,23.803z
			 M11.57,16.651l5.8-1.935l1.936,5.802l-5.8,1.935L11.57,16.651z"/>
	</g>
</g>
<g>
</g>
<g>
</g>
<g>
</g>
<g>
</g>
<g>
</g>
<g>
</g>
<g>
</g>
<g>
</g>
<g>
</g>
<g>
</g>
<g>
</g>
<g>
</g>
<g>
</g>
<g>
</g>
<g>
</g>
</svg>
