<?xml version="1.0" encoding="iso-8859-1"?>
<!-- Generator: Adobe Illustrator 16.0.0, SVG Export Plug-In . SVG Version: 6.00 Build 0)  -->
<!DOCTYPE svg PUBLIC "-//W3C//DTD SVG 1.1//EN" "http://www.w3.org/Graphics/SVG/1.1/DTD/svg11.dtd">
<svg version="1.1" id="Capa_1" xmlns="http://www.w3.org/2000/svg" xmlns:xlink="http://www.w3.org/1999/xlink" x="0px" y="0px"
	 width="19.507px" height="19.508px" viewBox="0 0 19.507 19.508" style="enable-background:new 0 0 19.507 19.508;"
	 xml:space="preserve">
<g>
	<g>
		<path d="M15.038,1.506h-0.33c-0.082-0.003-0.235-0.051-0.313-0.28C14.257,0.516,13.634,0,12.911,0H6.462
			C5.75,0,5.118,0.512,5.001,1.14C4.895,1.471,4.727,1.504,4.696,1.506H4.468c-0.833,0-1.51,0.677-1.51,1.51v1.237
			c0,0.31,0.089,0.888,0.18,1.454c0.021,0.134,0.039,0.24,0.046,0.295L4.779,18.45c0.077,0.603,0.594,1.058,1.202,1.058h7.545
			c0.607,0,1.123-0.455,1.201-1.058l1.596-12.448c0.007-0.055,0.023-0.161,0.046-0.296c0.091-0.565,0.18-1.143,0.18-1.453V3.016
			C16.548,2.183,15.871,1.506,15.038,1.506z M4.468,2.334l0.247-0.001c0.183-0.008,0.802-0.101,1.086-0.989
			c0.055-0.289,0.345-0.516,0.661-0.516h6.448c0.327,0,0.608,0.233,0.683,0.606c0.266,0.803,0.893,0.892,1.096,0.9h0.349
			c0.377,0,0.683,0.306,0.683,0.682v1.191H3.787V3.016C3.787,2.64,4.092,2.334,4.468,2.334z M15.501,5.897l-1.595,12.448
			c-0.024,0.192-0.188,0.335-0.38,0.335H5.981c-0.192,0-0.356-0.144-0.38-0.335L4.005,5.897c-0.008-0.06-0.026-0.175-0.05-0.321
			C3.933,5.431,3.901,5.234,3.872,5.034h11.763c-0.029,0.199-0.06,0.396-0.084,0.541C15.527,5.722,15.508,5.837,15.501,5.897z"/>
		<path d="M8.855,2.982h1.794c0.377,0,0.682-0.306,0.682-0.682c0-0.375-0.307-0.681-0.682-0.681H8.855
			c-0.376,0-0.681,0.306-0.681,0.681C8.174,2.676,8.48,2.982,8.855,2.982z"/>
		<path d="M11.383,7.225c-0.307-0.117-0.632-0.177-0.966-0.177c-1.47,0-2.89,1.124-3.531,2.797c-0.381,0.994-0.435,2.05-0.152,2.972
			c0.294,0.959,0.914,1.662,1.746,1.979c0.308,0.118,0.634,0.179,0.968,0.179c1.47,0,2.889-1.125,3.529-2.799
			C13.779,10.09,13.064,7.869,11.383,7.225z M9.248,8.637C8.722,9.4,8.706,10.523,9.191,11.951c0.328,1.211-0.212,1.592-0.234,1.607
			l-0.504,0.323C8.019,13.611,7.688,13.16,7.51,12.58c-0.231-0.751-0.183-1.618,0.134-2.445c0.492-1.282,1.557-2.194,2.626-2.27
			C9.944,7.981,9.544,8.205,9.248,8.637z M12.22,11.887c-0.425,1.107-1.275,1.938-2.189,2.195c0.183-0.098,0.371-0.237,0.531-0.438
			c0.424-0.528,0.527-1.295,0.309-2.277l-0.051-0.227c-0.394-1.765-0.444-1.993,0.326-2.699l0.303-0.278
			C12.445,8.815,12.796,10.384,12.22,11.887z"/>
	</g>
</g>
<g>
</g>
<g>
</g>
<g>
</g>
<g>
</g>
<g>
</g>
<g>
</g>
<g>
</g>
<g>
</g>
<g>
</g>
<g>
</g>
<g>
</g>
<g>
</g>
<g>
</g>
<g>
</g>
<g>
</g>
</svg>
