<?xml version="1.0" encoding="iso-8859-1"?>
<!-- Generator: Adobe Illustrator 16.0.0, SVG Export Plug-In . SVG Version: 6.00 Build 0)  -->
<!DOCTYPE svg PUBLIC "-//W3C//DTD SVG 1.1//EN" "http://www.w3.org/Graphics/SVG/1.1/DTD/svg11.dtd">
<svg version="1.1" id="Capa_1" xmlns="http://www.w3.org/2000/svg" xmlns:xlink="http://www.w3.org/1999/xlink" x="0px" y="0px"
	 width="20.242px" height="20.242px" viewBox="0 0 20.242 20.242" style="enable-background:new 0 0 20.242 20.242;"
	 xml:space="preserve">
<g>
	<path d="M16.153,3.024H9.782L9.693,2.325c-0.059-0.653-0.567-1.924-2.06-2.06C6.188,0.134,3.463,0.006,3.347,0L3.298,1.054
		c0.028,0.001,2.818,0.133,4.24,0.262C8.506,1.404,8.632,2.32,8.645,2.439l0.074,0.585H6.572H5.781v0.791v15.636v0.791h0.791h9.582
		h0.791v-0.791V3.815V3.024H16.153z M16.153,19.451H6.572V3.815h2.247l0.545,4.307H7.1v10.801h8.526v-10.8h-5.198L9.882,3.815h6.271
		V19.451z M10.946,13.089c0.276,0.099,0.42,0.403,0.322,0.679l-0.603,1.69c-0.099,0.276-0.403,0.421-0.679,0.322l-1.69-0.603
		c-0.277-0.099-0.421-0.402-0.322-0.679l0.602-1.69c0.099-0.276,0.403-0.42,0.679-0.322L10.946,13.089z M14.735,10.553l-0.603,1.69
		c-0.099,0.276-0.403,0.421-0.679,0.321l-1.69-0.602c-0.276-0.099-0.421-0.402-0.321-0.679l0.602-1.69
		c0.1-0.277,0.402-0.421,0.679-0.322l1.69,0.602C14.688,9.973,14.833,10.277,14.735,10.553z M14.991,16.87
		c0.102,0.274-0.039,0.581-0.314,0.683l-1.684,0.622c-0.274,0.103-0.58-0.039-0.682-0.313l-0.623-1.684
		c-0.102-0.275,0.039-0.58,0.314-0.683l1.684-0.622c0.274-0.102,0.58,0.039,0.682,0.314L14.991,16.87z"/>
</g>
<g>
</g>
<g>
</g>
<g>
</g>
<g>
</g>
<g>
</g>
<g>
</g>
<g>
</g>
<g>
</g>
<g>
</g>
<g>
</g>
<g>
</g>
<g>
</g>
<g>
</g>
<g>
</g>
<g>
</g>
</svg>
