<?xml version="1.0" encoding="iso-8859-1"?>
<!-- Generator: Adobe Illustrator 16.0.0, SVG Export Plug-In . SVG Version: 6.00 Build 0)  -->
<!DOCTYPE svg PUBLIC "-//W3C//DTD SVG 1.1//EN" "http://www.w3.org/Graphics/SVG/1.1/DTD/svg11.dtd">
<svg version="1.1" id="Capa_1" xmlns="http://www.w3.org/2000/svg" xmlns:xlink="http://www.w3.org/1999/xlink" x="0px" y="0px"
	 width="14.616px" height="14.616px" viewBox="0 0 14.616 14.616" style="enable-background:new 0 0 14.616 14.616;"
	 xml:space="preserve">
<g>
	<path d="M13.126,0H1.491C1.31,0,1.163,0.147,1.163,0.328v2.335c0,0.093,0.04,0.182,0.109,0.245c0.069,0.061,0.16,0.091,0.255,0.081
		L6.53,2.425v3.958c0,0.072,0.059,0.131,0.131,0.131h0.063C6.668,6.589,6.607,6.681,6.56,6.86C6.545,6.911,6.538,6.977,6.533,7.038
		L6.529,7.085L6.528,7.108C6.531,7.159,6.52,7.009,6.535,7.226L6.536,7.23l0.005,0.031C6.53,7.242,6.583,7.494,6.67,7.62
		c0.212,0.273,0.353,0.295,0.496,0.375c0.021,0.009,0.036,0.017,0.057,0.026c-0.102,0.045-0.212,0.097-0.346,0.19L6.79,8.286
		C6.755,8.32,6.719,8.365,6.687,8.407C6.65,8.455,6.608,8.545,6.58,8.621C6.565,8.664,6.555,8.723,6.545,8.775l-0.01,0.084
		L6.534,8.9c0.003,0.054-0.008-0.092,0.007,0.125l0.001,0.006l0.007,0.045c0.003,0.015,0,0.017,0.021,0.095
		C6.597,9.28,6.681,9.434,6.703,9.448c0.075,0.097,0.134,0.139,0.194,0.185C7.046,9.73,7.172,9.782,7.291,9.83
		c-0.136,0.059-0.283,0.115-0.476,0.277c-0.064,0.061-0.143,0.146-0.208,0.324c-0.015,0.038-0.026,0.099-0.034,0.15l-0.009,0.082
		l-0.003,0.04c0.003,0.048-0.008-0.08,0.007,0.112l0.001,0.007l0.008,0.047l0.004,0.022c0.004,0.021,0.014,0.056,0.022,0.082
		c0.098,0.274,0.169,0.287,0.23,0.357c0.063,0.054,0.117,0.085,0.169,0.115c0.168,0.088,0.311,0.137,0.441,0.189
		c-0.014,0.008-0.024,0.014-0.038,0.021c-0.152,0.075-0.307,0.128-0.493,0.266c-0.078,0.067-0.241,0.181-0.285,0.519L6.622,12.5
		l-0.001,0.016c-0.002-0.012,0.011,0.153,0.006,0.086l0.002,0.01l0.007,0.039c-0.003,0,0.024,0.113,0.059,0.186
		c0.041,0.09,0.067,0.114,0.091,0.143c0.026,0.03,0.054,0.062,0.075,0.078c0.185,0.146,0.325,0.185,0.458,0.241
		c0.131,0.052,0.251,0.097,0.338,0.149c0.003,0.001,0.002,0.002,0.004,0.003c-0.018,0.016-0.032,0.028-0.057,0.049
		c-0.083,0.062-0.182,0.149-0.26,0.25c-0.04,0.047-0.072,0.112-0.103,0.166l-0.022,0.041l-0.016,0.041l-0.001,0.002l-0.001,0.004
		l-0.002,0.008l-0.005,0.02c-0.007,0.021-0.01,0.045-0.014,0.065c-0.007,0.045-0.01,0.088-0.011,0.129
		c0.005,0.055,0.008,0.104,0.019,0.149c0.04,0.181,0.105,0.242,0.105,0.242s0.124-0.38,0.517-0.55
		c0.039-0.027,0.094-0.062,0.154-0.121C8,13.902,8.022,13.898,8.071,13.814c0.023-0.041,0.044-0.088,0.061-0.135l0.023-0.072
		l0.005-0.029l0.009-0.059l0.002-0.015l0.001-0.007l0.001-0.004c-0.001,0.015,0.01-0.137,0.006-0.078L8.17,13.334
		c-0.012-0.12-0.048-0.198-0.09-0.273c-0.079-0.123-0.157-0.184-0.225-0.23c-0.138-0.094-0.268-0.148-0.396-0.208
		c-0.057-0.026-0.117-0.056-0.172-0.085c0.083-0.038,0.176-0.076,0.277-0.115c0.081-0.031,0.166-0.066,0.261-0.119
		c0.047-0.025,0.098-0.057,0.155-0.105c0.025-0.018,0.06-0.057,0.091-0.094c0.017-0.022,0.027-0.027,0.05-0.066
		c0.024-0.042,0.047-0.089,0.064-0.139c0.045-0.133,0.035-0.135,0.043-0.168l0.004-0.021c0.013-0.18,0.003-0.061,0.006-0.105
		l-0.001-0.018l-0.005-0.037c-0.006-0.048-0.012-0.097-0.022-0.143c-0.021-0.088-0.054-0.147-0.089-0.215
		c-0.032-0.049-0.062-0.082-0.095-0.121c-0.119-0.117-0.216-0.168-0.309-0.219c-0.084-0.043-0.165-0.08-0.241-0.115
		c0.039-0.017,0.076-0.033,0.116-0.049c0.092-0.041,0.184-0.078,0.296-0.148c0.054-0.034,0.115-0.075,0.186-0.155
		c0.037-0.049,0.064-0.06,0.126-0.194c0.024-0.058,0.045-0.119,0.06-0.18l0.01-0.056c0.039-0.248-0.034-0.47-0.112-0.599
		C8.083,9.243,8.012,9.18,7.955,9.137C7.838,9.051,7.74,9.002,7.649,8.961C7.625,8.95,7.605,8.941,7.582,8.93
		c0.01-0.004,0.019-0.008,0.029-0.012c0.084-0.037,0.168-0.07,0.267-0.132C7.924,8.761,7.98,8.717,8.036,8.668
		c0.061-0.076,0.123-0.091,0.219-0.354c0.043-0.146,0.029-0.125,0.038-0.162l0.003-0.02l0.01-0.113L8.303,8.001L8.301,7.963
		C8.296,7.913,8.29,7.862,8.28,7.813C8.243,7.63,8.154,7.5,8.1,7.44C7.974,7.298,7.885,7.258,7.802,7.21
		c-0.15-0.078-0.273-0.124-0.385-0.173C7.513,6.945,7.616,6.84,7.7,6.714c0.044-0.063,0.069-0.133,0.102-0.2h0.154
		c0.072,0,0.131-0.059,0.131-0.131V2.425l5.003,0.564c0.013,0.001,0.025,0.002,0.037,0.002c0.08,0,0.158-0.029,0.218-0.083
		c0.07-0.062,0.109-0.151,0.109-0.245V0.328C13.455,0.147,13.307,0,13.126,0z M7.163,10.559C7.157,10.555,7.155,10.546,7.163,10.559
		L7.163,10.559z M12.684,0.703H1.934c-0.081,0-0.146-0.065-0.146-0.146s0.065-0.146,0.146-0.146h10.75
		c0.08,0,0.146,0.065,0.146,0.146S12.764,0.703,12.684,0.703z"/>
</g>
<g>
</g>
<g>
</g>
<g>
</g>
<g>
</g>
<g>
</g>
<g>
</g>
<g>
</g>
<g>
</g>
<g>
</g>
<g>
</g>
<g>
</g>
<g>
</g>
<g>
</g>
<g>
</g>
<g>
</g>
</svg>
