<?xml version="1.0" encoding="iso-8859-1"?>
<!-- Generator: Adobe Illustrator 16.0.0, SVG Export Plug-In . SVG Version: 6.00 Build 0)  -->
<!DOCTYPE svg PUBLIC "-//W3C//DTD SVG 1.1//EN" "http://www.w3.org/Graphics/SVG/1.1/DTD/svg11.dtd">
<svg version="1.1" id="Capa_1" xmlns="http://www.w3.org/2000/svg" xmlns:xlink="http://www.w3.org/1999/xlink" x="0px" y="0px"
	 width="13.723px" height="13.723px" viewBox="0 0 13.723 13.723" style="enable-background:new 0 0 13.723 13.723;"
	 xml:space="preserve">
<g>
	<g>
		<g>
			<path d="M9.568,13.07H0.893C0.401,13.07,0,12.67,0,12.178V1.545c0-0.492,0.401-0.893,0.893-0.893h8.675
				c0.492,0,0.894,0.401,0.894,0.893v1.343c1.908,0.434,3.261,2.02,3.261,3.883s-1.353,3.449-3.261,3.883v1.523
				C10.462,12.67,10.061,13.07,9.568,13.07z M0.893,1.418c-0.07,0-0.128,0.057-0.128,0.128v10.631c0,0.07,0.057,0.129,0.128,0.129
				h8.675c0.07,0,0.129-0.057,0.129-0.129V10.01l0.324-0.049c1.701-0.262,2.937-1.603,2.937-3.188s-1.235-2.927-2.937-3.189
				l-0.324-0.05V1.545c0-0.07-0.057-0.128-0.129-0.128L0.893,1.418L0.893,1.418z M9.695,9.264V4.28l0.476,0.118
				c1.19,0.296,2.021,1.271,2.021,2.373c0,1.101-0.83,2.076-2.021,2.373L9.695,9.264z M10.462,5.319v2.903
				c0.586-0.303,0.965-0.852,0.965-1.451C11.427,6.171,11.048,5.624,10.462,5.319z"/>
		</g>
		<path d="M6.387,4.669c-0.402,0-0.763,0.17-1.021,0.439c-0.257-0.27-0.618-0.439-1.021-0.439c-0.781,0-1.414,0.633-1.414,1.414
			c0,0.271,0.08,0.522,0.213,0.737c0.031,0.05,0.065,0.096,0.101,0.141l2.121,2.093l2.12-2.093C7.523,6.917,7.559,6.87,7.588,6.82
			c0.133-0.215,0.213-0.466,0.213-0.737C7.801,5.302,7.168,4.669,6.387,4.669z"/>
	</g>
</g>
<g>
</g>
<g>
</g>
<g>
</g>
<g>
</g>
<g>
</g>
<g>
</g>
<g>
</g>
<g>
</g>
<g>
</g>
<g>
</g>
<g>
</g>
<g>
</g>
<g>
</g>
<g>
</g>
<g>
</g>
</svg>
