<?xml version="1.0" encoding="iso-8859-1"?>
<!-- Generator: Adobe Illustrator 16.0.0, SVG Export Plug-In . SVG Version: 6.00 Build 0)  -->
<!DOCTYPE svg PUBLIC "-//W3C//DTD SVG 1.1//EN" "http://www.w3.org/Graphics/SVG/1.1/DTD/svg11.dtd">
<svg version="1.1" id="Capa_1" xmlns="http://www.w3.org/2000/svg" xmlns:xlink="http://www.w3.org/1999/xlink" x="0px" y="0px"
	 width="26.573px" height="26.573px" viewBox="0 0 26.573 26.573" style="enable-background:new 0 0 26.573 26.573;"
	 xml:space="preserve">
<g>
	<g>
		<path d="M9.668,7.489c-2.604,0-4.714,2.47-4.714,5.516s2.111,5.516,4.714,5.516c2.604,0,4.714-2.47,4.714-5.516
			C14.383,9.958,12.272,7.489,9.668,7.489z M9.003,17.479c0,0,1.261-0.899,0.26-3.159c-2.727-5.184,1.37-5.79,1.37-5.79
			c-1.427,1.53-1.103,2.155,0.013,5.041C12.035,17.166,9.003,17.479,9.003,17.479z"/>
		<path d="M20.637,6.785c-0.447,0-0.881,0.059-1.3,0.162V2.036c0-0.596-0.485-1.08-1.08-1.08H1.08C0.485,0.956,0,1.441,0,2.036
			v22.501c0,0.596,0.485,1.08,1.08,1.08h17.176c0.596,0,1.08-0.485,1.08-1.08v-4.911c0.419,0.104,0.854,0.162,1.301,0.162
			c3.273,0,5.937-2.917,5.937-6.502S23.911,6.785,20.637,6.785z M17.98,24.261H1.357V2.313H17.98v5.168v2.885v5.842v2.885V24.261z
			 M20.637,17.528c-0.457,0-0.895-0.103-1.3-0.279V9.326c0.405-0.178,0.843-0.279,1.3-0.279c2.027,0,3.676,1.902,3.676,4.241
			S22.664,17.528,20.637,17.528z"/>
	</g>
</g>
<g>
</g>
<g>
</g>
<g>
</g>
<g>
</g>
<g>
</g>
<g>
</g>
<g>
</g>
<g>
</g>
<g>
</g>
<g>
</g>
<g>
</g>
<g>
</g>
<g>
</g>
<g>
</g>
<g>
</g>
</svg>
