<?xml version="1.0" encoding="iso-8859-1"?>
<!-- Generator: Adobe Illustrator 16.0.0, SVG Export Plug-In . SVG Version: 6.00 Build 0)  -->
<!DOCTYPE svg PUBLIC "-//W3C//DTD SVG 1.1//EN" "http://www.w3.org/Graphics/SVG/1.1/DTD/svg11.dtd">
<svg version="1.1" id="Capa_1" xmlns="http://www.w3.org/2000/svg" xmlns:xlink="http://www.w3.org/1999/xlink" x="0px" y="0px"
	 width="15.63px" height="15.631px" viewBox="0 0 15.63 15.631" style="enable-background:new 0 0 15.63 15.631;"
	 xml:space="preserve">
<g>
	<g>
		<path d="M5.378,15.346c0,0-0.017,0.237,0.15,0.275c0.192,0.014,4.382,0.014,4.574,0c0.167-0.038,0.149-0.275,0.149-0.275
			l0.006-0.193H5.372L5.378,15.346z"/>
		<path d="M10.524,6.989c0,0,0.017-1.181-1.194-1.527c-0.361-0.152-0.223-0.67-0.223-0.67S9.36,3.054,8.498,1.429
			C8.837,1.128,8.673,1.03,8.673,1.03V0.293C8.673,0.293,8.8,0,8.53,0C8.398,0,8.183,0,7.996,0c0,0-0.165,0-0.361,0
			C7.448,0,7.233,0,7.101,0C6.83,0,6.958,0.293,6.958,0.293V1.03c0,0-0.166,0.098,0.176,0.399c-0.863,1.625-0.61,3.363-0.61,3.363
			s0.137,0.518-0.223,0.67C5.09,5.808,5.107,6.989,5.107,6.989l0.259,7.981h4.899L10.524,6.989z M6.876,2.864h0.912h0.965
			c0.064,0.284,0.102,0.552,0.117,0.784H6.76C6.776,3.415,6.813,3.147,6.876,2.864z M7.815,11.3c-1.047,0-1.896-0.632-1.896-1.411
			s0.849-1.41,1.896-1.41S9.71,9.109,9.71,9.889S8.862,11.3,7.815,11.3z"/>
	</g>
	<ellipse cx="7.815" cy="9.889" rx="1.577" ry="1.174"/>
</g>
<g>
</g>
<g>
</g>
<g>
</g>
<g>
</g>
<g>
</g>
<g>
</g>
<g>
</g>
<g>
</g>
<g>
</g>
<g>
</g>
<g>
</g>
<g>
</g>
<g>
</g>
<g>
</g>
<g>
</g>
</svg>
