<?xml version="1.0" encoding="iso-8859-1"?>
<!-- Generator: Adobe Illustrator 16.0.0, SVG Export Plug-In . SVG Version: 6.00 Build 0)  -->
<!DOCTYPE svg PUBLIC "-//W3C//DTD SVG 1.1//EN" "http://www.w3.org/Graphics/SVG/1.1/DTD/svg11.dtd">
<svg version="1.1" id="Capa_1" xmlns="http://www.w3.org/2000/svg" xmlns:xlink="http://www.w3.org/1999/xlink" x="0px" y="0px"
	 width="15.439px" height="15.439px" viewBox="0 0 15.439 15.439" style="enable-background:new 0 0 15.439 15.439;"
	 xml:space="preserve">
<g>
	<path d="M11.5,1.168C11.215,0.401,9.459,0,7.72,0c-1.74,0-3.495,0.401-3.782,1.168C3.912,1.239,3.893,1.312,3.893,1.39
		c0,0.021,0.006,0.041,0.008,0.062C3.912,1.561,3.95,1.663,4.013,1.759l3.485,9.564v2.3c-1.061,0.035-2.122,0.322-2.122,0.906
		c0,0.625,1.215,0.91,2.344,0.91s2.344-0.285,2.344-0.91c0-0.584-1.062-0.871-2.122-0.906v-2.301l3.484-9.564
		c0.062-0.096,0.101-0.198,0.111-0.307c0.004-0.02,0.01-0.04,0.01-0.061C11.547,1.312,11.527,1.239,11.5,1.168z M7.72,0.445
		c1.69,0,2.879,0.375,3.254,0.723c0.084,0.076,0.128,0.152,0.128,0.222c0,0.07-0.044,0.145-0.128,0.222
		C10.599,1.96,9.41,2.335,7.72,2.335c-1.69,0-2.879-0.375-3.254-0.723C4.381,1.535,4.337,1.46,4.337,1.39
		c0-0.07,0.045-0.145,0.128-0.222C4.841,0.82,6.03,0.445,7.72,0.445z M9.619,14.529c0,0.119-0.652,0.465-1.899,0.465
		c-1.246,0-1.9-0.346-1.9-0.465c0-0.112,0.576-0.424,1.677-0.461v0.461h0.445v-0.461C9.043,14.105,9.619,14.417,9.619,14.529z
		 M7.72,10.634L5.958,5.797C6.416,5.989,7.082,6.08,7.72,6.08c0.638,0,1.304-0.091,1.762-0.283L7.72,10.634z M7.72,5.636
		c-1.246,0-1.9-0.346-1.9-0.465s0.653-0.465,1.9-0.465c1.246,0,1.899,0.346,1.899,0.465S8.966,5.636,7.72,5.636z M9.857,4.766
		C9.463,4.422,8.567,4.261,7.72,4.261c-0.848,0-1.744,0.161-2.138,0.505L4.668,2.26C5.405,2.603,6.564,2.78,7.72,2.78
		c1.153,0,2.315-0.177,3.051-0.52L9.857,4.766z"/>
</g>
<g>
</g>
<g>
</g>
<g>
</g>
<g>
</g>
<g>
</g>
<g>
</g>
<g>
</g>
<g>
</g>
<g>
</g>
<g>
</g>
<g>
</g>
<g>
</g>
<g>
</g>
<g>
</g>
<g>
</g>
</svg>
