<?xml version="1.0" encoding="iso-8859-1"?>
<!-- Generator: Adobe Illustrator 16.0.0, SVG Export Plug-In . SVG Version: 6.00 Build 0)  -->
<!DOCTYPE svg PUBLIC "-//W3C//DTD SVG 1.1//EN" "http://www.w3.org/Graphics/SVG/1.1/DTD/svg11.dtd">
<svg version="1.1" id="Capa_1" xmlns="http://www.w3.org/2000/svg" xmlns:xlink="http://www.w3.org/1999/xlink" x="0px" y="0px"
	 width="26.961px" height="26.961px" viewBox="0 0 26.961 26.961" style="enable-background:new 0 0 26.961 26.961;"
	 xml:space="preserve">
<g>
	<g>
		<path d="M15.273,0c-1.167,0-1.624,0.96-1.702,1.468l-0.24,1.622h-5.82H7.198L7.046,3.363C6.995,3.455,5.809,5.66,7.562,9.416
			c1.991,4.266,1.381,9.841,1.374,9.896l-0.003,0.029v0.029c0,0.012-0.028,1.406-1.037,2.832c-1.055,1.492-0.784,2.648-0.529,3.205
			c0.103,0.225,0.213,0.38,0.269,0.451l0.021,0.026l0.025,0.024c0.028,0.027,0.057,0.056,0.089,0.083
			c0.698,0.597,2.221,0.968,3.974,0.968c1.753,0,3.275-0.371,3.974-0.968c0.03-0.026,0.058-0.052,0.085-0.079l0.025-0.025
			l0.021-0.027c0.057-0.073,0.168-0.229,0.273-0.459c0.254-0.555,0.522-1.711-0.531-3.201c-1.02-1.442-1.037-2.819-1.037-2.832
			V19.34l-0.003-0.029c-0.006-0.053-0.613-5.637,1.374-9.895c1.753-3.756,0.567-5.961,0.515-6.053L16.29,3.09h-0.313h-1.459
			l0.213-1.447c0.008-0.048,0.088-0.47,0.544-0.47c0.425,0,2.632,0.773,4.434,1.489l0.215,0.085l0.433-1.09l-0.214-0.085
			C19.478,1.309,16.138,0,15.273,0z M15.976,3.623c0,0,1.125,2.016-0.533,5.568c-2.077,4.451-1.419,10.183-1.419,10.183
			s0.006,1.542,1.134,3.138c0.883,1.248,0.708,2.178,0.481,2.674c-0.076,0.166-0.158,0.287-0.208,0.351
			c-0.019,0.019-0.038,0.037-0.059,0.055c-0.575,0.492-1.981,0.841-3.628,0.841s-3.052-0.349-3.628-0.841
			c-0.022-0.019-0.042-0.038-0.062-0.058c-0.05-0.064-0.13-0.182-0.205-0.346c-0.227-0.496-0.404-1.426,0.48-2.676
			c1.129-1.596,1.135-3.138,1.135-3.138s0.656-5.732-1.421-10.183C6.386,5.639,7.511,3.623,7.511,3.623h5.741l-0.656,4.443h-2.551
			c0.586,1.181,0.256,4.988,0.256,4.988c0.114-1.112-0.854-4.192-1.369-4.988H7.966c0.109,0.31,0.241,0.635,0.399,0.975
			c2.058,4.412,1.5,9.938,1.454,10.355c-0.005,0.207-0.079,1.735-1.2,3.32c-0.758,1.072-0.662,1.855-0.447,2.322
			c0.057,0.125,0.115,0.212,0.147,0.256l0.028,0.025c0.439,0.375,1.66,0.756,3.396,0.756c1.736,0,2.957-0.379,3.396-0.756h0.001
			l0.025-0.023c0.032-0.045,0.091-0.133,0.148-0.259c0.214-0.468,0.31-1.25-0.446-2.321c-1.121-1.585-1.195-3.113-1.2-3.32
			c-0.046-0.418-0.605-5.944,1.454-10.355c0.158-0.34,0.29-0.665,0.398-0.975h-1.74l0.656-4.443H15.976z M13.063,8.066l0.656-4.443
			h0.251l-0.656,4.443H13.063z M19.663,2.147c-0.819-0.319-3.729-1.436-4.39-1.437c-0.686,0-0.954,0.564-1,0.863L14.049,3.09h-0.251
			l0.229-1.553c0.057-0.372,0.391-1.075,1.246-1.075c0.616,0,3.01,0.877,4.481,1.454L19.663,2.147z"/>
	</g>
</g>
<g>
</g>
<g>
</g>
<g>
</g>
<g>
</g>
<g>
</g>
<g>
</g>
<g>
</g>
<g>
</g>
<g>
</g>
<g>
</g>
<g>
</g>
<g>
</g>
<g>
</g>
<g>
</g>
<g>
</g>
</svg>
