<?xml version="1.0" encoding="iso-8859-1"?>
<!-- Generator: Adobe Illustrator 16.0.0, SVG Export Plug-In . SVG Version: 6.00 Build 0)  -->
<!DOCTYPE svg PUBLIC "-//W3C//DTD SVG 1.1//EN" "http://www.w3.org/Graphics/SVG/1.1/DTD/svg11.dtd">
<svg version="1.1" id="Capa_1" xmlns="http://www.w3.org/2000/svg" xmlns:xlink="http://www.w3.org/1999/xlink" x="0px" y="0px"
	 width="39.378px" height="39.378px" viewBox="0 0 39.378 39.378" style="enable-background:new 0 0 39.378 39.378;"
	 xml:space="preserve">
<g>
	<g>
		<path d="M22.832,7.515l1.076-4.226c0.031-0.129,0.252-0.779,1.383-0.873c1.978-0.164,4.549-0.447,4.574-0.45L29.65,0
			c-0.027,0.003-2.572,0.283-4.523,0.445c-2.16,0.179-3.002,1.625-3.145,2.39l-1.191,4.68h-8.639L9.513,10.58h19.249l-2.638-3.065
			H22.832z"/>
		<path d="M12.321,31.271l0.398,2.808c4.565-4.724,10.135-6.995,13.979-8.067l0.459-3.24C22.939,23.693,16.825,25.919,12.321,31.271
			z"/>
		<path d="M11.374,24.582l0.352,2.484c5.288-5.09,11.735-7.041,15.928-7.784l0.368-2.601C23.576,17.186,16.604,18.921,11.374,24.582
			z"/>
		<path d="M13.337,38.438l0.133,0.94h2.2c3.231-3.334,6.948-5.451,10.096-6.78l0.417-2.945
			C22.307,30.948,17.124,33.504,13.337,38.438z"/>
		<path d="M10.472,18.22l0.326,2.3c6.009-5.361,13.249-6.853,17.703-7.228l0.261-1.844h-3.065
			C21.549,11.965,15.414,13.55,10.472,18.22z"/>
		<path d="M9.513,11.448l0.406,2.864c1.437-1.147,2.929-2.088,4.423-2.864H9.513z"/>
		<path d="M24.806,39.378l0.402-2.845c-1.475,0.746-3.025,1.681-4.535,2.845H24.806z"/>
	</g>
</g>
<g>
</g>
<g>
</g>
<g>
</g>
<g>
</g>
<g>
</g>
<g>
</g>
<g>
</g>
<g>
</g>
<g>
</g>
<g>
</g>
<g>
</g>
<g>
</g>
<g>
</g>
<g>
</g>
<g>
</g>
</svg>
