<?xml version="1.0" encoding="iso-8859-1"?>
<!-- Generator: Adobe Illustrator 16.0.0, SVG Export Plug-In . SVG Version: 6.00 Build 0)  -->
<!DOCTYPE svg PUBLIC "-//W3C//DTD SVG 1.1//EN" "http://www.w3.org/Graphics/SVG/1.1/DTD/svg11.dtd">
<svg version="1.1" id="Capa_1" xmlns="http://www.w3.org/2000/svg" xmlns:xlink="http://www.w3.org/1999/xlink" x="0px" y="0px"
	 width="32.038px" height="32.037px" viewBox="0 0 32.038 32.037" style="enable-background:new 0 0 32.038 32.037;"
	 xml:space="preserve">
<g>
	<g>
		<polygon points="24.488,32.037 7.549,32.037 7.04,30.316 24.998,30.316 		"/>
		<path d="M23.205,0.573C23.205,0.257,22.948,0,22.631,0H9.406C9.088,0,8.833,0.257,8.833,0.573l0,0
			c0,0.317,0.257,0.573,0.573,0.573h13.226C22.948,1.147,23.205,0.89,23.205,0.573L23.205,0.573z"/>
		<g>
			<path d="M22.958,2.019H9.079L7.04,5.459v24.208h17.958V5.459L22.958,2.019z M23.926,19.177c-4.313,1.359-5.029-0.51-9.276-1.614
				c-4.247-1.104-6.54,2.889-6.54,2.889v-9.428c0,0,1.615-4.668,6.71-1.274c6.965,4.639,9.106,1.699,9.106,1.699
				S23.926,16.204,23.926,19.177z"/>
		</g>
	</g>
</g>
<g>
</g>
<g>
</g>
<g>
</g>
<g>
</g>
<g>
</g>
<g>
</g>
<g>
</g>
<g>
</g>
<g>
</g>
<g>
</g>
<g>
</g>
<g>
</g>
<g>
</g>
<g>
</g>
<g>
</g>
</svg>
