<?xml version="1.0" encoding="iso-8859-1"?>
<!-- Generator: Adobe Illustrator 16.0.0, SVG Export Plug-In . SVG Version: 6.00 Build 0)  -->
<!DOCTYPE svg PUBLIC "-//W3C//DTD SVG 1.1//EN" "http://www.w3.org/Graphics/SVG/1.1/DTD/svg11.dtd">
<svg version="1.1" id="Capa_1" xmlns="http://www.w3.org/2000/svg" xmlns:xlink="http://www.w3.org/1999/xlink" x="0px" y="0px"
	 width="38.908px" height="38.908px" viewBox="0 0 38.908 38.908" style="enable-background:new 0 0 38.908 38.908;"
	 xml:space="preserve">
<g>
	<g>
		<g>
			<path d="M20.398,25.178c-3.626,0-6.467-1.851-6.467-4.214c0-2.363,2.841-4.214,6.467-4.214c0.547,0,1.088,0.043,1.609,0.127
				c2.906,0.469,4.858,2.112,4.858,4.087C26.866,23.327,24.025,25.178,20.398,25.178z M20.398,18.658
				c-2.686,0-4.559,1.215-4.559,2.306s1.872,2.306,4.559,2.306c2.688,0,4.559-1.215,4.559-2.306c0-0.956-1.398-1.903-3.254-2.203
				C21.282,18.693,20.844,18.658,20.398,18.658z"/>
		</g>
		<path d="M31.416,10.058l-1.91-3.593H16.961L14.528,0H7.066v3.181h5.261l1.235,3.284h-2.498l-1.908,3.593L8.73,10.86l0.209,1.106
			l5.089,26.942h12.517l5.088-26.942l0.209-1.106L31.416,10.058z M13.208,1.908h-4.87V1.272h5.309l1.949,5.177l-0.043,0.016h-0.632
			L13.208,1.908z M12.211,8.374H28.36l0.896,1.684H11.316L12.211,8.374z M24.963,37h-9.354L10.88,11.967h18.81L24.963,37z"/>
	</g>
</g>
<g>
</g>
<g>
</g>
<g>
</g>
<g>
</g>
<g>
</g>
<g>
</g>
<g>
</g>
<g>
</g>
<g>
</g>
<g>
</g>
<g>
</g>
<g>
</g>
<g>
</g>
<g>
</g>
<g>
</g>
</svg>
