<?xml version="1.0" encoding="iso-8859-1"?>
<!-- Generator: Adobe Illustrator 16.0.0, SVG Export Plug-In . SVG Version: 6.00 Build 0)  -->
<!DOCTYPE svg PUBLIC "-//W3C//DTD SVG 1.1//EN" "http://www.w3.org/Graphics/SVG/1.1/DTD/svg11.dtd">
<svg version="1.1" id="Capa_1" xmlns="http://www.w3.org/2000/svg" xmlns:xlink="http://www.w3.org/1999/xlink" x="0px" y="0px"
	 width="17.873px" height="17.873px" viewBox="0 0 17.873 17.873" style="enable-background:new 0 0 17.873 17.873;"
	 xml:space="preserve">
<g>
	<g>
		<path d="M12.665,3.283c0.163-0.012,0.397-0.482,0.356-1.038c-0.041-0.556-0.058-1.008-0.505-0.975
			c-0.445,0.033-0.396,0.482-0.355,1.038S12.501,3.295,12.665,3.283z"/>
		<path d="M11.352,3.089c0.422,0.364,0.938,0.457,1.046,0.334c0.107-0.124-0.061-0.622-0.482-0.986
			c-0.422-0.365-0.754-0.672-1.046-0.334S10.929,2.725,11.352,3.089z"/>
		<path d="M12.308,3.71c-0.012-0.163-0.482-0.397-1.038-0.356c-0.558,0.041-1.009,0.058-0.976,0.504
			c0.032,0.446,0.481,0.397,1.037,0.356C11.888,4.173,12.319,3.874,12.308,3.71z"/>
		<path d="M12.446,3.978c-0.124-0.107-0.622,0.06-0.986,0.483c-0.363,0.423-0.672,0.753-0.334,1.045s0.623-0.06,0.986-0.483
			C12.478,4.602,12.57,4.085,12.446,3.978z"/>
		<path d="M12.734,4.068c-0.163,0.012-0.397,0.482-0.356,1.038s0.059,1.008,0.504,0.975c0.446-0.033,0.397-0.482,0.356-1.038
			C13.197,4.488,12.897,4.056,12.734,4.068z"/>
		<path d="M14.048,4.263c-0.422-0.364-0.939-0.457-1.047-0.334c-0.106,0.124,0.061,0.622,0.483,0.986
			c0.422,0.364,0.754,0.672,1.046,0.334C14.821,4.91,14.47,4.627,14.048,4.263z"/>
		<path d="M14.067,3.138c-0.557,0.041-0.987,0.34-0.975,0.504c0.012,0.163,0.481,0.397,1.037,0.356
			c0.557-0.041,1.008-0.058,0.976-0.504C15.073,3.048,14.624,3.097,14.067,3.138z"/>
		<path d="M12.952,3.374c0.124,0.107,0.622-0.06,0.986-0.483c0.363-0.422,0.672-0.754,0.334-1.046
			c-0.338-0.292-0.622,0.061-0.986,0.483C12.921,2.75,12.828,3.267,12.952,3.374z"/>
		<path d="M15.712,3.455c-0.123-1.661-1.572-2.913-3.233-2.791C11.581,0.73,10.806,1.185,10.3,1.849
			C9.681,1.744,9.007,1.691,8.335,1.691c-0.53,0-1.062,0.033-1.567,0.099L6.703,1.244C6.691,0.938,6.455,0.382,5.623,0.316
			C4.867,0.256,2.245,0.003,2.219,0L2.153,0.679c0.026,0.002,2.654,0.257,3.415,0.317c0.405,0.032,0.45,0.224,0.454,0.272L6.096,1.9
			C4.695,2.18,3.635,2.738,3.635,3.558c0,0.123,0.025,0.241,0.071,0.352l1.117,12.468c-0.001,0.013-0.004,0.024-0.004,0.036
			c0,0.064,0.009,0.125,0.024,0.186c0.014,0.056,0.035,0.109,0.062,0.162c0.371,0.728,1.907,1.109,3.427,1.111h0.017l0,0
			c1.482,0,3.064-0.352,3.424-1.111c0.021-0.045,0.038-0.092,0.051-0.14c0.017-0.062,0.026-0.127,0.026-0.194
			c0-0.015-0.004-0.029-0.006-0.043l0.869-9.692c0.068,0,0.137,0,0.205-0.005C14.581,6.566,15.833,5.116,15.712,3.455z M8.335,2.373
			c0.586,0,1.118,0.041,1.593,0.108C9.741,2.914,9.651,3.395,9.688,3.897c0.019,0.262,0.075,0.512,0.155,0.75
			C9.39,4.707,8.886,4.743,8.335,4.743c-0.438,0-0.847-0.023-1.225-0.063L6.848,2.466C7.295,2.408,7.793,2.373,8.335,2.373z
			 M4.317,3.558c0-0.048,0.02-0.099,0.05-0.15c0.171-0.291,0.814-0.621,1.81-0.829l0.237,2.004C5.732,4.461,5.195,4.282,4.835,4.09
			C4.501,3.911,4.317,3.722,4.317,3.558z M11.234,15.57l-0.046,0.51c0,0-0.02,0.261-0.02,0.346c0,0.084-0.132,0.21-0.39,0.336
			c-0.442,0.215-1.256,0.43-2.431,0.43H8.334c-1.144-0.002-1.96-0.215-2.414-0.43c-0.276-0.13-0.418-0.261-0.418-0.346
			c0-0.084-0.02-0.336-0.02-0.336l-0.047-0.529L4.458,4.66c0.517,0.293,1.237,0.502,2.04,0.628l1.339,11.315l0.677-0.08L7.192,5.373
			c0.375,0.034,0.759,0.052,1.143,0.052c0.618,0,1.237-0.046,1.814-0.134c0.425,0.668,1.104,1.154,1.888,1.331L11.234,15.57z
			 M12.884,6.197C12.843,6.2,12.802,6.199,12.761,6.2c-0.233,0.006-0.461-0.019-0.678-0.074c-0.563-0.143-1.057-0.475-1.4-0.931
			c-0.143-0.189-0.26-0.399-0.346-0.626c-0.084-0.223-0.14-0.46-0.158-0.708c-0.033-0.463,0.062-0.905,0.252-1.294
			c0.109-0.223,0.25-0.427,0.418-0.608c0.421-0.452,1.003-0.755,1.666-0.804c1.39-0.103,2.604,0.946,2.705,2.336
			C15.322,4.881,14.274,6.095,12.884,6.197z"/>
	</g>
</g>
<g>
</g>
<g>
</g>
<g>
</g>
<g>
</g>
<g>
</g>
<g>
</g>
<g>
</g>
<g>
</g>
<g>
</g>
<g>
</g>
<g>
</g>
<g>
</g>
<g>
</g>
<g>
</g>
<g>
</g>
</svg>
