<?xml version="1.0" encoding="iso-8859-1"?>
<!-- Generator: Adobe Illustrator 16.0.0, SVG Export Plug-In . SVG Version: 6.00 Build 0)  -->
<!DOCTYPE svg PUBLIC "-//W3C//DTD SVG 1.1//EN" "http://www.w3.org/Graphics/SVG/1.1/DTD/svg11.dtd">
<svg version="1.1" id="Capa_1" xmlns="http://www.w3.org/2000/svg" xmlns:xlink="http://www.w3.org/1999/xlink" x="0px" y="0px"
	 width="16.482px" height="16.482px" viewBox="0 0 16.482 16.482" style="enable-background:new 0 0 16.482 16.482;"
	 xml:space="preserve">
<g>
	<path d="M4.202,16.01c-0.05,0-0.093-0.02-0.141-0.027c0.032,0.279,0.261,0.5,0.55,0.5h7.259c0.289,0,0.519-0.221,0.551-0.5
		c-0.049,0.008-0.092,0.027-0.141,0.027H4.202z"/>
	<g>
		<path d="M13.046,1.69c-0.012-0.033-0.021-0.064-0.036-0.095l0,0c-0.101-0.206-0.283-0.354-0.507-0.419l0,0
			c-0.072-0.022-0.145-0.046-0.223-0.046H4.202c-0.452,0-0.818,0.367-0.818,0.818v8.821v3.287v0.817c0,0.401,0.295,0.721,0.677,0.79
			c-0.002-0.021,8.362-0.021,8.36,0c0.382-0.069,0.677-0.389,0.677-0.79v-0.817V1.948C13.098,1.856,13.076,1.771,13.046,1.69z
			 M10.099,8.163c0.932,4.929-3.984,6.182-5.897,6.481v-0.588v-3.41c1.235-0.267,3.42-1.102,3.268-3.686
			c-0.164-2.782,1.318-4.246,2.762-5.013h1.373C10.465,2.536,9.33,4.085,10.099,8.163z"/>
		<path d="M13.098,0.383C13.098,0.172,12.926,0,12.715,0H3.848C3.637,0,3.465,0.172,3.465,0.383l0,0
			c0,0.212,0.172,0.383,0.383,0.383h8.866C12.926,0.767,13.098,0.595,13.098,0.383L13.098,0.383z"/>
	</g>
</g>
<g>
</g>
<g>
</g>
<g>
</g>
<g>
</g>
<g>
</g>
<g>
</g>
<g>
</g>
<g>
</g>
<g>
</g>
<g>
</g>
<g>
</g>
<g>
</g>
<g>
</g>
<g>
</g>
<g>
</g>
</svg>
