<?xml version="1.0" encoding="iso-8859-1"?>
<!-- Generator: Adobe Illustrator 16.0.0, SVG Export Plug-In . SVG Version: 6.00 Build 0)  -->
<!DOCTYPE svg PUBLIC "-//W3C//DTD SVG 1.1//EN" "http://www.w3.org/Graphics/SVG/1.1/DTD/svg11.dtd">
<svg version="1.1" id="Capa_1" xmlns="http://www.w3.org/2000/svg" xmlns:xlink="http://www.w3.org/1999/xlink" x="0px" y="0px"
	 width="21.021px" height="21.021px" viewBox="0 0 21.021 21.021" style="enable-background:new 0 0 21.021 21.021;"
	 xml:space="preserve">
<g>
	<g>
		<path d="M19.938,0.163C19.846,0.059,19.715,0,19.579,0H1.445c-0.139,0-0.27,0.059-0.359,0.163C0.995,0.266,0.953,0.403,0.97,0.54
			l2.628,20.065c0.031,0.237,0.234,0.416,0.475,0.416h12.879c0.24,0,0.443-0.179,0.474-0.416L20.051,0.54
			C20.07,0.403,20.028,0.266,19.938,0.163z M16.325,15.925H4.698L1.989,0.955h17.045L16.325,15.925z"/>
		<polygon points="5.096,15.447 13.777,15.447 15.65,5.096 3.223,5.096 		"/>
		<polygon points="15.925,15.447 17.799,5.096 16.843,5.096 14.97,15.447 		"/>
	</g>
</g>
<g>
</g>
<g>
</g>
<g>
</g>
<g>
</g>
<g>
</g>
<g>
</g>
<g>
</g>
<g>
</g>
<g>
</g>
<g>
</g>
<g>
</g>
<g>
</g>
<g>
</g>
<g>
</g>
<g>
</g>
</svg>
