<?xml version="1.0" encoding="iso-8859-1"?>
<!-- Generator: Adobe Illustrator 16.0.0, SVG Export Plug-In . SVG Version: 6.00 Build 0)  -->
<!DOCTYPE svg PUBLIC "-//W3C//DTD SVG 1.1//EN" "http://www.w3.org/Graphics/SVG/1.1/DTD/svg11.dtd">
<svg version="1.1" id="Capa_1" xmlns="http://www.w3.org/2000/svg" xmlns:xlink="http://www.w3.org/1999/xlink" x="0px" y="0px"
	 width="12.264px" height="12.264px" viewBox="0 0 12.264 12.264" style="enable-background:new 0 0 12.264 12.264;"
	 xml:space="preserve">
<g>
	<g>
		<path d="M10.609,10.883H0.359C0.161,10.883,0,11.044,0,11.243c0,0.197,0.161,0.358,0.359,0.358h10.25
			c0.197,0,0.358-0.161,0.358-0.358C10.968,11.044,10.809,10.883,10.609,10.883z"/>
		<path d="M11.924,6.81c-0.333-0.345-0.828-0.455-1.21-0.485c0.017-0.167,0.036-0.332,0.036-0.504c0-0.193-0.037-0.375-0.057-0.562
			H0.057C0.037,5.446,0,5.628,0,5.821c0,2.045,1.182,3.8,2.896,4.687h4.958c0.537-0.278,1.014-0.649,1.426-1.08
			c0.027,0,0.047,0.002,0.078,0.002c0.904,0,2.707-0.168,2.89-1.496C12.325,7.363,12.113,7.008,11.924,6.81z M11.503,7.833
			c-0.073,0.543-0.873,0.75-1.596,0.816c0.311-0.478,0.538-1.01,0.679-1.577c0.275,0.016,0.619,0.074,0.799,0.262
			C11.426,7.375,11.548,7.502,11.503,7.833z"/>
		<path d="M5.154,4.04C4.993,4.111,4.922,4.3,4.993,4.46C5.046,4.58,5.162,4.648,5.284,4.648c0.044,0,0.088-0.009,0.13-0.028
			C6.21,4.265,6.959,3.586,7.323,2.892c0.278-0.531,0.215-1.194-0.163-1.69c-0.3-0.393-0.837-0.604-1.301-0.521
			c-0.395,0.072-0.69,0.347-0.81,0.753c-0.106,0.36-0.047,0.752,0.159,1.049c0.188,0.273,0.475,0.437,0.807,0.462
			C6.189,2.962,6.343,2.827,6.356,2.65c0.013-0.176-0.118-0.329-0.294-0.342s-0.277-0.11-0.331-0.188
			C5.636,1.981,5.608,1.788,5.659,1.614c0.053-0.178,0.155-0.278,0.314-0.307c0.233-0.044,0.525,0.078,0.679,0.282
			c0.229,0.3,0.27,0.695,0.106,1.008C6.462,3.163,5.817,3.743,5.154,4.04z"/>
	</g>
</g>
<g>
</g>
<g>
</g>
<g>
</g>
<g>
</g>
<g>
</g>
<g>
</g>
<g>
</g>
<g>
</g>
<g>
</g>
<g>
</g>
<g>
</g>
<g>
</g>
<g>
</g>
<g>
</g>
<g>
</g>
</svg>
