<?xml version="1.0" encoding="iso-8859-1"?>
<!-- Generator: Adobe Illustrator 16.0.0, SVG Export Plug-In . SVG Version: 6.00 Build 0)  -->
<!DOCTYPE svg PUBLIC "-//W3C//DTD SVG 1.1//EN" "http://www.w3.org/Graphics/SVG/1.1/DTD/svg11.dtd">
<svg version="1.1" id="Capa_1" xmlns="http://www.w3.org/2000/svg" xmlns:xlink="http://www.w3.org/1999/xlink" x="0px" y="0px"
	 width="23.303px" height="23.303px" viewBox="0 0 23.303 23.303" style="enable-background:new 0 0 23.303 23.303;"
	 xml:space="preserve">
<g>
	<path d="M16.58,0.209L16.476,0h-9.65L6.724,0.209C6.637,0.385,4.63,4.56,6.75,7.687c1.906,2.811,1.697,8.922,1.529,13.834
		l-0.011,0.363c-0.025,0.195-0.083,0.859,0.22,1.203c0.122,0.139,0.291,0.215,0.475,0.215h5.377l0,0
		c0.185,0,0.354-0.076,0.476-0.215c0.303-0.344,0.244-1.008,0.222-1.168l-0.014-0.398c-0.167-4.912-0.376-11.024,1.529-13.834
		C18.673,4.56,16.666,0.385,16.58,0.209z M7.462,7.425C7.394,7.301,7.337,7.203,7.295,7.134h1.461
		c1.502,6.831,0.488,13.66,0.241,15.106C8.996,22.146,9,22.045,9.012,21.945l0.014-0.398C9.195,16.609,9.399,10.491,7.462,7.425z
		 M7.302,0.748h8.7c0.322,0.762,1.309,3.456,0.353,5.732H6.95C5.993,4.204,6.98,1.509,7.302,0.748z"/>
</g>
<g>
</g>
<g>
</g>
<g>
</g>
<g>
</g>
<g>
</g>
<g>
</g>
<g>
</g>
<g>
</g>
<g>
</g>
<g>
</g>
<g>
</g>
<g>
</g>
<g>
</g>
<g>
</g>
<g>
</g>
</svg>
