<?xml version="1.0" encoding="iso-8859-1"?>
<!-- Generator: Adobe Illustrator 16.0.0, SVG Export Plug-In . SVG Version: 6.00 Build 0)  -->
<!DOCTYPE svg PUBLIC "-//W3C//DTD SVG 1.1//EN" "http://www.w3.org/Graphics/SVG/1.1/DTD/svg11.dtd">
<svg version="1.1" id="Capa_1" xmlns="http://www.w3.org/2000/svg" xmlns:xlink="http://www.w3.org/1999/xlink" x="0px" y="0px"
	 width="22.569px" height="22.568px" viewBox="0 0 22.569 22.568" style="enable-background:new 0 0 22.569 22.568;"
	 xml:space="preserve">
<g>
	<g>
		<path d="M18.994,4.639V3.144c0-0.731-0.594-1.325-1.325-1.325h-0.42c-0.184-0.008-0.637-0.1-0.849-0.744
			C16.28,0.452,15.734,0,15.098,0h-7.79c-0.633,0-1.181,0.452-1.29,1.031c-0.223,0.688-0.675,0.78-0.844,0.788H4.9
			c-0.731,0-1.325,0.594-1.325,1.325v1.495c0,0.49,0.271,0.914,0.667,1.143c-0.06,0.043-0.116,0.091-0.166,0.147
			c-0.183,0.208-0.267,0.485-0.232,0.76l1.927,15.04c0.062,0.48,0.471,0.84,0.956,0.84h9.116c0.484,0,0.894-0.359,0.955-0.84
			l1.928-15.04c0.035-0.275-0.049-0.551-0.232-0.759c-0.05-0.056-0.105-0.105-0.166-0.147C18.723,5.553,18.994,5.129,18.994,4.639z
			 M4.298,3.144c0-0.332,0.27-0.602,0.602-0.602h0.29c0.261-0.011,1.143-0.136,1.529-1.33c0.054-0.283,0.302-0.488,0.59-0.488h7.79
			c0.289,0,0.537,0.206,0.603,0.532c0.374,1.15,1.255,1.276,1.532,1.287h0.436c0.332,0,0.602,0.27,0.602,0.602V4.64
			c0,0.332-0.27,0.602-0.602,0.602H4.9c-0.332,0-0.602-0.27-0.602-0.602V3.144z M14.422,15.365
			c-1.135,2.027-3.459,2.886-5.194,1.916c-1.734-0.971-2.219-3.401-1.084-5.429c1.135-2.028,3.459-2.886,5.194-1.916
			S15.557,13.337,14.422,15.365z"/>
		<path d="M10.2,3.144h2.168c0.454,0,0.823-0.369,0.823-0.823c0-0.454-0.369-0.823-0.823-0.823H10.2
			c-0.454,0-0.823,0.369-0.823,0.823C9.376,2.774,9.746,3.144,10.2,3.144z M10.2,2.22h2.168c0.055,0,0.1,0.045,0.1,0.1
			c0,0.056-0.045,0.101-0.1,0.101H10.2c-0.055,0-0.1-0.045-0.1-0.101C10.1,2.265,10.145,2.22,10.2,2.22z"/>
		<path d="M10.525,14.333c-0.176,1.878-1.35,2.007-1.35,2.007s2.136,0.921,2.55-1.99c0.332-2.336,0.349-2.874,1.869-3.36
			C13.594,10.989,10.64,9.865,10.525,14.333z"/>
	</g>
</g>
<g>
</g>
<g>
</g>
<g>
</g>
<g>
</g>
<g>
</g>
<g>
</g>
<g>
</g>
<g>
</g>
<g>
</g>
<g>
</g>
<g>
</g>
<g>
</g>
<g>
</g>
<g>
</g>
<g>
</g>
</svg>
