<?xml version="1.0" encoding="iso-8859-1"?>
<!-- Generator: Adobe Illustrator 16.0.0, SVG Export Plug-In . SVG Version: 6.00 Build 0)  -->
<!DOCTYPE svg PUBLIC "-//W3C//DTD SVG 1.1//EN" "http://www.w3.org/Graphics/SVG/1.1/DTD/svg11.dtd">
<svg version="1.1" id="Capa_1" xmlns="http://www.w3.org/2000/svg" xmlns:xlink="http://www.w3.org/1999/xlink" x="0px" y="0px"
	 width="26.714px" height="26.714px" viewBox="0 0 26.714 26.714" style="enable-background:new 0 0 26.714 26.714;"
	 xml:space="preserve">
<g>
	<path d="M15.357,1.166c1.921,0.35,7.394,1.091,7.625,1.122l0.152-1.13c-0.056-0.008-5.678-0.768-7.572-1.113
		c-1.543-0.283-2.252,0.854-2.419,1.532L13.057,2.06c-0.544-0.063-1.109-0.099-1.693-0.099c-4.365,0-7.784,1.857-7.784,4.226
		c0,0.059,0.012,0.116,0.016,0.174C3.591,6.399,3.579,6.438,3.582,6.477l0.811,8.783c0,0.015-0.004,0.029-0.004,0.044
		c0,0.152,0.019,0.3,0.049,0.447l0.722,7.82c0.002,0.022,0.013,0.041,0.018,0.062c0.31,1.754,2.915,3.08,6.186,3.08
		c3.271,0,5.876-1.327,6.187-3.08c0.004-0.021,0.016-0.04,0.018-0.062l0.722-7.82c0.03-0.147,0.049-0.295,0.049-0.447
		c0-0.015-0.004-0.029-0.004-0.044l0.812-8.783c0.004-0.04-0.01-0.077-0.014-0.116c0.004-0.058,0.016-0.115,0.016-0.174
		c0-1.827-2.035-3.344-4.967-3.946l0.076-0.427C14.277,1.731,14.487,1.008,15.357,1.166z M4.768,5.854
		c0.359-1.386,2.916-2.754,6.596-2.754c0.523,0,1.02,0.03,1.494,0.082L11.78,9.265c-0.138,0.004-0.275,0.009-0.416,0.009
		c-3.257,0-5.635-1.072-6.388-2.279C4.81,6.729,4.72,6.456,4.72,6.187C4.72,6.077,4.739,5.965,4.768,5.854z M4.921,8.587
		c1.389,1.11,3.732,1.826,6.442,1.826c0.073,0,0.142-0.006,0.214-0.007l-0.192,1.083c-0.008,0-0.015-0.001-0.022-0.001
		c-2.589,0-4.799,0.737-6.003,1.854L4.921,8.587z M5.566,15.573l-0.031-0.332c0.076-1.228,2.363-2.561,5.647-2.61l-0.939,5.296
		C7.641,17.685,5.835,16.618,5.566,15.573z M17.161,15.573c-0.306,1.185-2.586,2.399-5.768,2.406l0.941-5.31
		c2.855,0.23,4.789,1.446,4.857,2.572L17.161,15.573z M17.367,13.341c-1.018-0.944-2.758-1.611-4.835-1.796l0.213-1.204
		c2.114-0.199,3.915-0.839,5.06-1.754L17.367,13.341z M17.959,5.854c0.029,0.111,0.048,0.222,0.048,0.332
		c0,0.269-0.09,0.541-0.256,0.807c-0.624,1.002-2.367,1.907-4.801,2.188l1.031-5.827C16.222,3.814,17.693,4.829,17.959,5.854z"/>
</g>
<g>
</g>
<g>
</g>
<g>
</g>
<g>
</g>
<g>
</g>
<g>
</g>
<g>
</g>
<g>
</g>
<g>
</g>
<g>
</g>
<g>
</g>
<g>
</g>
<g>
</g>
<g>
</g>
<g>
</g>
</svg>
