<?xml version="1.0" encoding="iso-8859-1"?>
<!-- Generator: Adobe Illustrator 16.0.0, SVG Export Plug-In . SVG Version: 6.00 Build 0)  -->
<!DOCTYPE svg PUBLIC "-//W3C//DTD SVG 1.1//EN" "http://www.w3.org/Graphics/SVG/1.1/DTD/svg11.dtd">
<svg version="1.1" id="Capa_1" xmlns="http://www.w3.org/2000/svg" xmlns:xlink="http://www.w3.org/1999/xlink" x="0px" y="0px"
	 width="19.346px" height="19.346px" viewBox="0 0 19.346 19.346" style="enable-background:new 0 0 19.346 19.346;"
	 xml:space="preserve">
<g>
	<g>
		<path d="M12.628,0.839V2.49l1.168-1.167C13.466,1.062,13.066,0.889,12.628,0.839z"/>
		<path d="M12.102,2.49V0.839c-0.438,0.05-0.838,0.224-1.167,0.485L12.102,2.49z"/>
		<path d="M14.652,2.862c-0.05-0.438-0.224-0.838-0.485-1.167l-1.166,1.167H14.652z"/>
		<path d="M14.167,4.556c0.262-0.328,0.436-0.729,0.485-1.167h-1.651L14.167,4.556z"/>
		<path d="M12.366,0C10.73,0,9.388,1.262,9.252,2.862H8.185L7.931,1.604c-0.06-0.513-0.448-1.232-1.301-1.159
			C5.843,0.511,3.936,0.723,3.854,0.732l0.087,0.785c0.02-0.002,1.978-0.22,2.753-0.284c0.366-0.031,0.438,0.355,0.452,0.471
			l0.233,1.159H6.663c-0.291,0-0.526,0.236-0.526,0.526V18.82c0,0.291,0.236,0.525,0.526,0.525h5.44
			c0.291,0,0.525-0.236,0.525-0.525V6.238c1.602-0.134,2.863-1.478,2.863-3.112C15.491,1.402,14.089,0,12.366,0z M12.102,5.712
			v0.526v11.53h-5.44V3.389h0.824l0.507,2.517H7.016v11.475h4.731V5.906h-2.95L8.291,3.389h0.963h0.526h2.323L12.102,5.712
			L12.102,5.712z M12.628,5.712V5.413c0.438-0.05,0.838-0.224,1.168-0.485l-1.168-1.167V3.389c0-0.291-0.235-0.526-0.525-0.526
			h-0.373l-1.167-1.167c-0.261,0.328-0.435,0.728-0.483,1.166h-0.3c0.132-1.312,1.239-2.336,2.587-2.336
			c1.436,0,2.598,1.164,2.598,2.599C14.964,4.472,13.94,5.58,12.628,5.712z"/>
	</g>
</g>
<g>
</g>
<g>
</g>
<g>
</g>
<g>
</g>
<g>
</g>
<g>
</g>
<g>
</g>
<g>
</g>
<g>
</g>
<g>
</g>
<g>
</g>
<g>
</g>
<g>
</g>
<g>
</g>
<g>
</g>
</svg>
