<?xml version="1.0" encoding="iso-8859-1"?>
<!-- Generator: Adobe Illustrator 16.0.0, SVG Export Plug-In . SVG Version: 6.00 Build 0)  -->
<!DOCTYPE svg PUBLIC "-//W3C//DTD SVG 1.1//EN" "http://www.w3.org/Graphics/SVG/1.1/DTD/svg11.dtd">
<svg version="1.1" id="Capa_1" xmlns="http://www.w3.org/2000/svg" xmlns:xlink="http://www.w3.org/1999/xlink" x="0px" y="0px"
	 width="37.449px" height="37.448px" viewBox="0 0 37.449 37.448" style="enable-background:new 0 0 37.449 37.448;"
	 xml:space="preserve">
<g>
	<g>
		<path d="M9.398,27.98H28.05l0.979-10.212H8.42L9.398,27.98z M27.929,18.769l-0.787,8.213H10.306l-0.787-8.213H27.929z"/>
		<path d="M10.108,36.279c0.064,0.666,0.617,1.169,1.287,1.169h14.657c0.668,0,1.222-0.503,1.287-1.169l0.729-7.624H9.379
			L10.108,36.279z M26.97,29.655l-0.627,6.526c-0.014,0.151-0.139,0.267-0.291,0.267H11.395c-0.151,0-0.276-0.114-0.291-0.265
			l-0.626-6.528H26.97z"/>
		<path d="M31.505,6.747c0-1.357-1.03-2.479-2.369-2.625L26.75,0H11.058L8.681,4.105H8.586c-1.457,0-2.643,1.185-2.643,2.642
			c0,1.182,0.785,2.173,1.858,2.51C7.74,9.431,7.714,9.618,7.731,9.806l0.708,7.377h20.57l0.707-7.377
			c0.018-0.187-0.008-0.374-0.068-0.549C30.72,8.92,31.505,7.929,31.505,6.747z M28.102,16.183H9.348l-0.62-6.471
			C8.72,9.628,8.746,9.547,8.804,9.484C8.857,9.424,8.936,9.39,9.019,9.39h19.412c0.082,0,0.16,0.034,0.216,0.095
			c0.056,0.062,0.083,0.143,0.073,0.226L28.102,16.183z M28.863,8.39h-0.432H9.019H8.586c-0.906,0-1.643-0.738-1.643-1.643
			c0-0.905,0.737-1.642,1.643-1.642h0.672L11.634,1h14.54l2.231,3.856l0.169,0.249h0.288c0.905,0,1.644,0.736,1.644,1.642
			C30.505,7.653,29.768,8.39,28.863,8.39z"/>
		<path d="M20.835,2.249h-4.222c-0.521,0-0.946,0.425-0.946,0.946s0.425,0.945,0.946,0.945h4.222c0.521,0,0.945-0.424,0.945-0.945
			S21.356,2.249,20.835,2.249z"/>
	</g>
</g>
<g>
</g>
<g>
</g>
<g>
</g>
<g>
</g>
<g>
</g>
<g>
</g>
<g>
</g>
<g>
</g>
<g>
</g>
<g>
</g>
<g>
</g>
<g>
</g>
<g>
</g>
<g>
</g>
<g>
</g>
</svg>
