<?xml version="1.0" encoding="iso-8859-1"?>
<!-- Generator: Adobe Illustrator 16.0.0, SVG Export Plug-In . SVG Version: 6.00 Build 0)  -->
<!DOCTYPE svg PUBLIC "-//W3C//DTD SVG 1.1//EN" "http://www.w3.org/Graphics/SVG/1.1/DTD/svg11.dtd">
<svg version="1.1" id="Capa_1" xmlns="http://www.w3.org/2000/svg" xmlns:xlink="http://www.w3.org/1999/xlink" x="0px" y="0px"
	 width="18.917px" height="18.917px" viewBox="0 0 18.917 18.917" style="enable-background:new 0 0 18.917 18.917;"
	 xml:space="preserve">
<g>
	<path d="M11.255,0.885h3.928V0h-3.928c-0.918,0-1.267,0.774-1.319,1.166C9.878,1.485,9.815,1.83,9.75,2.19H3.734v16.063
		c0,0.366,0.298,0.664,0.664,0.664h7.744c0.365,0,0.664-0.298,0.664-0.664V2.19h-2.157c0.056-0.308,0.11-0.605,0.16-0.879
		C10.825,1.21,10.906,0.885,11.255,0.885z M4.176,2.632h5.492C9.31,4.591,8.893,6.833,8.71,7.721H4.57V17.99
		c-0.005,0.328,0.072,0.443,0.116,0.484H4.539c-0.326-0.078-0.361-0.367-0.362-0.465v-0.033V7.721L4.176,2.632L4.176,2.632z
		 M12.363,2.632v5.089H9.611c0.223-1.086,0.622-3.247,0.958-5.089H12.363z"/>
</g>
<g>
</g>
<g>
</g>
<g>
</g>
<g>
</g>
<g>
</g>
<g>
</g>
<g>
</g>
<g>
</g>
<g>
</g>
<g>
</g>
<g>
</g>
<g>
</g>
<g>
</g>
<g>
</g>
<g>
</g>
</svg>
