<?xml version="1.0" encoding="iso-8859-1"?>
<!-- Generator: Adobe Illustrator 16.0.0, SVG Export Plug-In . SVG Version: 6.00 Build 0)  -->
<!DOCTYPE svg PUBLIC "-//W3C//DTD SVG 1.1//EN" "http://www.w3.org/Graphics/SVG/1.1/DTD/svg11.dtd">
<svg version="1.1" id="Capa_1" xmlns="http://www.w3.org/2000/svg" xmlns:xlink="http://www.w3.org/1999/xlink" x="0px" y="0px"
	 width="10.783px" height="10.783px" viewBox="0 0 10.783 10.783" style="enable-background:new 0 0 10.783 10.783;"
	 xml:space="preserve">
<g>
	<g>
		<path d="M8.714,1.278c0-1.705-6.645-1.705-6.645,0c0,0.006,0.002,0.012,0.002,0.018c0,0.003-0.001,0.006-0.001,0.008L3.028,9.84
			c0,0.004,0.003,0.007,0.003,0.01c0.045,0.641,1.243,0.934,2.36,0.934c1.116,0,2.313-0.293,2.36-0.932
			C7.753,9.847,7.755,9.844,7.755,9.84l0.959-8.534c0-0.003-0.002-0.006-0.002-0.008C8.712,1.291,8.714,1.285,8.714,1.278z
			 M5.393,0.458c1.349,0,2.31,0.293,2.676,0.58c0.104,0.083,0.168,0.165,0.168,0.239c0,0.075-0.063,0.157-0.168,0.239
			c-0.366,0.287-1.327,0.58-2.675,0.58c-1.348,0-2.31-0.293-2.675-0.58c-0.107-0.081-0.17-0.164-0.17-0.238
			c0-0.075,0.063-0.157,0.168-0.239C3.082,0.751,4.043,0.458,5.393,0.458z M7.341,9.233L7.304,9.574c0,0-0.026,0.181-0.026,0.238
			c0,0.059-0.116,0.15-0.33,0.239c-0.31,0.129-0.831,0.251-1.555,0.251c-0.724,0-1.246-0.122-1.556-0.251
			c-0.214-0.089-0.33-0.181-0.33-0.239c0-0.058-0.025-0.238-0.025-0.238L3.443,9.233l-0.809-7.2
			c0.629,0.358,1.696,0.544,2.757,0.544c1.061,0,2.129-0.186,2.758-0.544L7.341,9.233z"/>
		<g>
			<path d="M3.16,4.568l0.579,5.161c0.149,0.125,0.744,0.334,1.653,0.334c0.907,0,1.503-0.209,1.651-0.334l0.58-5.161
				c-0.434,0.273-1.265,0.46-2.233,0.46C4.423,5.028,3.592,4.84,3.16,4.568z M4.277,9.421c-0.007,0-0.014,0.001-0.02,0.001
				c-0.09,0-0.168-0.068-0.178-0.16L3.66,5.478C3.649,5.38,3.72,5.291,3.819,5.28c0.1-0.008,0.187,0.06,0.198,0.158l0.419,3.783
				C4.447,9.32,4.376,9.41,4.277,9.421z"/>
			<path d="M5.391,3.562c-1.471,0-2.265,0.418-2.265,0.589c0,0.171,0.794,0.589,2.265,0.589c1.471,0,2.265-0.418,2.265-0.589
				C7.656,3.98,6.863,3.562,5.391,3.562z"/>
		</g>
	</g>
</g>
<g>
</g>
<g>
</g>
<g>
</g>
<g>
</g>
<g>
</g>
<g>
</g>
<g>
</g>
<g>
</g>
<g>
</g>
<g>
</g>
<g>
</g>
<g>
</g>
<g>
</g>
<g>
</g>
<g>
</g>
</svg>
