<?xml version="1.0" encoding="iso-8859-1"?>
<!-- Generator: Adobe Illustrator 16.0.0, SVG Export Plug-In . SVG Version: 6.00 Build 0)  -->
<!DOCTYPE svg PUBLIC "-//W3C//DTD SVG 1.1//EN" "http://www.w3.org/Graphics/SVG/1.1/DTD/svg11.dtd">
<svg version="1.1" id="Capa_1" xmlns="http://www.w3.org/2000/svg" xmlns:xlink="http://www.w3.org/1999/xlink" x="0px" y="0px"
	 width="140.097px" height="140.097px" viewBox="0 0 140.097 140.097" style="enable-background:new 0 0 140.097 140.097;"
	 xml:space="preserve">
<g>
	<g>
		<path d="M117.199,127.142H13.731c-1.034,0-1.912,0.762-2.068,1.795c-0.146,1.024,0.478,2.01,1.483,2.303L42.703,140
			c0.185,0.059,0.39,0.098,0.585,0.098h44.345c0.195,0,0.4-0.039,0.586-0.098l29.557-8.76c1.004-0.293,1.629-1.278,1.482-2.303
			C119.111,127.904,118.233,127.142,117.199,127.142z"/>
		<path d="M105.386,60.162l0.653-11.457c0.039-0.581-0.166-1.137-0.565-1.561c-0.391-0.419-0.946-0.659-1.521-0.659H26.978
			c-0.576,0-1.132,0.239-1.521,0.649c-0.4,0.419-0.596,0.99-0.566,1.561l4.185,73.198c0.059,1.112,0.975,1.971,2.087,1.971h68.614
			c1.112,0,2.029-0.858,2.088-1.971l0.673-11.695c0.478,0.029,0.946,0.068,1.425,0.068c13.51,0,24.493-11.257,24.493-25.089
			C128.456,71.838,118.223,60.923,105.386,60.162z M39.318,116.549c-0.068,0-0.137,0-0.205,0c-1.648,0-3.024-1.278-3.122-2.946
			l-3.492-56.47c-0.097-1.727,1.219-3.204,2.946-3.321c1.795-0.132,3.219,1.205,3.326,2.936l3.492,56.464
			C42.361,114.949,41.044,116.442,39.318,116.549z M103.953,101.917c-0.322,0-0.625-0.078-0.947-0.098l1.893-33.269
			c8.448,0.521,15.188,7.745,15.188,16.627C120.086,94.406,112.848,101.917,103.953,101.917z"/>
		<path d="M40.361,29.44c1.405,6.35,8.262,9.345,9.042,9.667l2.39-5.805c-1.19-0.487-4.711-2.497-5.307-5.214
			c-0.41-1.858,0.566-4.087,2.907-6.604c3.854-4.175,5.346-8.277,4.419-12.228C52.36,3.058,45.57,0.288,44.8,0l-2.244,5.853
			c0.039,0.02,4.438,1.829,5.141,4.823c0.517,2.239-1.297,4.785-2.917,6.546C40.976,21.348,39.483,25.45,40.361,29.44z"/>
		<path d="M57.09,29.44c1.405,6.35,8.263,9.345,9.043,9.667l2.39-5.805c-1.18-0.487-4.692-2.487-5.297-5.214
			c-0.419-1.858,0.566-4.087,2.897-6.604c3.853-4.175,5.346-8.277,4.419-12.228C69.089,3.058,62.299,0.288,61.519,0l-2.233,5.853
			c0.039,0.02,4.438,1.829,5.141,4.823c0.517,2.239-1.298,4.785-2.917,6.546C57.705,21.348,56.212,25.45,57.09,29.44z"/>
		<path d="M73.83,29.44c1.395,6.35,8.252,9.345,9.033,9.667l2.39-5.805c-1.181-0.487-4.692-2.487-5.297-5.214
			c-0.419-1.858,0.565-4.087,2.897-6.604c3.862-4.175,5.346-8.277,4.419-12.228C85.818,3.058,79.019,0.288,78.249,0l-2.233,5.853
			c0.039,0.02,4.447,1.829,5.141,4.823c0.526,2.239-1.298,4.785-2.917,6.546C74.435,21.348,72.952,25.45,73.83,29.44z"/>
	</g>
</g>
<g>
</g>
<g>
</g>
<g>
</g>
<g>
</g>
<g>
</g>
<g>
</g>
<g>
</g>
<g>
</g>
<g>
</g>
<g>
</g>
<g>
</g>
<g>
</g>
<g>
</g>
<g>
</g>
<g>
</g>
</svg>
