<?xml version="1.0" encoding="iso-8859-1"?>
<!-- Generator: Adobe Illustrator 16.0.0, SVG Export Plug-In . SVG Version: 6.00 Build 0)  -->
<!DOCTYPE svg PUBLIC "-//W3C//DTD SVG 1.1//EN" "http://www.w3.org/Graphics/SVG/1.1/DTD/svg11.dtd">
<svg version="1.1" id="Capa_1" xmlns="http://www.w3.org/2000/svg" xmlns:xlink="http://www.w3.org/1999/xlink" x="0px" y="0px"
	 width="11.001px" height="11.001px" viewBox="0 0 11.001 11.001" style="enable-background:new 0 0 11.001 11.001;"
	 xml:space="preserve">
<g>
	<g>
		<path d="M8.064,5.007c-0.3,0-0.576,0.108-0.814,0.287V4.067c0-0.101-0.023-0.196-0.065-0.284c-0.597-1.254-5.14-1.254-5.737,0
			C1.405,3.871,1.382,3.966,1.382,4.067v5.69c0,0.102,0.023,0.196,0.065,0.284c0.299,0.631,1.59,0.96,2.868,0.96
			c1.278,0,2.569-0.329,2.868-0.96c0.042-0.089,0.065-0.184,0.065-0.284V8.513c0.237,0.179,0.515,0.286,0.813,0.286
			c0.859,0,1.557-0.85,1.557-1.896C9.619,5.857,8.922,5.007,8.064,5.007z M4.316,4.743c-0.972,0-1.686-0.192-2.063-0.391
			C2.062,4.251,1.951,4.148,1.951,4.067c0-0.08,0.11-0.183,0.302-0.284C2.63,3.584,3.344,3.392,4.316,3.392
			c0.972,0,1.686,0.192,2.063,0.391c0.192,0.101,0.302,0.204,0.302,0.284S6.572,4.25,6.379,4.351
			C6.002,4.551,5.288,4.743,4.316,4.743z M8.064,7.946c-0.383,0-0.705-0.479-0.705-1.042c0-0.564,0.323-1.043,0.705-1.043
			c0.381,0,0.703,0.478,0.703,1.042C8.767,7.467,8.445,7.946,8.064,7.946z"/>
		<g>
			<g>
				<path d="M2.953,2.499c-0.072,0-0.142-0.034-0.187-0.098C2.694,2.299,2.719,2.157,2.822,2.085
					c0.081-0.057,0.313-0.26,0.315-0.439c0-0.082-0.057-0.166-0.171-0.249c-0.285-0.208-0.42-0.441-0.401-0.691
					c0.032-0.412,0.48-0.655,0.531-0.681C3.208-0.031,3.344,0.01,3.402,0.122C3.461,0.234,3.417,0.37,3.306,0.429
					C3.217,0.476,3.029,0.615,3.02,0.741C3.012,0.849,3.151,0.968,3.235,1.03c0.298,0.218,0.358,0.458,0.357,0.621
					c-0.006,0.444-0.458,0.772-0.51,0.807C3.043,2.486,2.998,2.499,2.953,2.499z"/>
			</g>
			<g>
				<path d="M4.191,2.499c-0.072,0-0.142-0.034-0.187-0.098C3.932,2.299,3.958,2.157,4.061,2.085
					c0.081-0.057,0.313-0.26,0.315-0.439c0-0.082-0.057-0.166-0.171-0.249c-0.285-0.208-0.42-0.441-0.401-0.691
					c0.032-0.412,0.48-0.655,0.531-0.681C4.446-0.031,4.583,0.01,4.64,0.122C4.699,0.234,4.655,0.37,4.544,0.429
					C4.456,0.476,4.267,0.615,4.257,0.741C4.25,0.849,4.389,0.968,4.473,1.03c0.298,0.218,0.358,0.458,0.357,0.621
					C4.824,2.095,4.373,2.423,4.32,2.458C4.281,2.486,4.235,2.499,4.191,2.499z"/>
			</g>
			<g>
				<path d="M5.429,2.499c-0.072,0-0.142-0.034-0.187-0.098C5.17,2.299,5.195,2.157,5.298,2.085c0.081-0.057,0.313-0.26,0.315-0.439
					c0-0.082-0.057-0.166-0.171-0.249c-0.285-0.208-0.42-0.441-0.401-0.691c0.032-0.412,0.48-0.655,0.531-0.681
					C5.686-0.031,5.82,0.01,5.878,0.122C5.937,0.234,5.894,0.37,5.782,0.429C5.693,0.476,5.505,0.615,5.495,0.741
					C5.488,0.849,5.627,0.968,5.711,1.03c0.298,0.218,0.358,0.458,0.357,0.621C6.062,2.095,5.61,2.423,5.558,2.458
					C5.52,2.486,5.473,2.499,5.429,2.499z"/>
			</g>
		</g>
	</g>
</g>
<g>
</g>
<g>
</g>
<g>
</g>
<g>
</g>
<g>
</g>
<g>
</g>
<g>
</g>
<g>
</g>
<g>
</g>
<g>
</g>
<g>
</g>
<g>
</g>
<g>
</g>
<g>
</g>
<g>
</g>
</svg>
