<?xml version="1.0" encoding="iso-8859-1"?>
<!-- Generator: Adobe Illustrator 16.0.0, SVG Export Plug-In . SVG Version: 6.00 Build 0)  -->
<!DOCTYPE svg PUBLIC "-//W3C//DTD SVG 1.1//EN" "http://www.w3.org/Graphics/SVG/1.1/DTD/svg11.dtd">
<svg version="1.1" id="Capa_1" xmlns="http://www.w3.org/2000/svg" xmlns:xlink="http://www.w3.org/1999/xlink" x="0px" y="0px"
	 width="37.053px" height="37.053px" viewBox="0 0 37.053 37.053" style="enable-background:new 0 0 37.053 37.053;"
	 xml:space="preserve">
<g>
	<path d="M34.464,31.96c-0.05,0-0.101-0.008-0.15-0.023c-0.264-0.083-0.409-0.364-0.326-0.627l2.089-6.612
		c0.083-0.264,0.365-0.409,0.627-0.326c0.264,0.083,0.409,0.364,0.326,0.627L34.94,31.61C34.873,31.824,34.677,31.96,34.464,31.96z"
		/>
	<g>
		<g>
			<path d="M1.927,31.346h14.985c1.064,0,1.927-0.731,1.927-1.635H0C0,30.614,0.863,31.346,1.927,31.346z"/>
			<path d="M15.91,7.3c0.011,0.015,0.013,0.031,0.017,0.047L15.939,7.3H15.91z"/>
			<path d="M2.899,7.3l0.012,0.047C2.915,7.331,2.917,7.316,2.928,7.3H2.899z"/>
			<path d="M2.942,7.472L2.911,7.346C2.908,7.357,2.899,7.368,2.899,7.378C2.899,7.41,2.916,7.441,2.942,7.472z"/>
			<path d="M15.939,7.378c0-0.011-0.009-0.021-0.012-0.032l-0.031,0.125C15.922,7.441,15.939,7.41,15.939,7.378z"/>
			<path d="M3.196,7.426C4.069,8.158,6.82,8.689,9.419,8.689s5.35-0.531,6.223-1.262c0.125-0.105,0.212-0.214,0.254-0.326
				l0.031-0.281c-0.004-0.035-0.006-0.07-0.017-0.105c-0.285-0.911-3.482-1.622-6.491-1.622c-3.009,0-6.206,0.711-6.491,1.622
				C2.917,6.75,2.915,6.785,2.911,6.82l0.031,0.281C2.984,7.213,3.07,7.321,3.196,7.426z"/>
		</g>
		<g>
			<path d="M5.138,8.935C4.265,8.724,3.561,8.457,3.196,8.151l1.803,4.82L0.25,28.001C0.096,28.235,0,28.503,0,28.791h1.864
				l4.94-15.404L5.138,8.935z"/>
			<path d="M30.693,11.374c-1.068,1.068-4.541,1.781-6.055,1.87c-1.513,0.089-5.252,1.78-5.252,1.78l0.168,0.478
				c-1.296,0.457-2.551,0.886-3.012,1.002c-0.636,0.159-0.951,0.528-1.102,0.81c-0.058,0.108-0.096,0.217-0.126,0.326l-1.475-4.668
				l1.803-4.82c-0.874,0.73-3.625,1.261-6.224,1.261c-0.806,0-1.621-0.056-2.396-0.148l1.527,4.08L3.597,28.791h15.241
				c0-0.288-0.096-0.556-0.25-0.79l-1.954-6.184c0.028,0.002,0.055,0.014,0.084,0.014c0.062,0,0.126-0.008,0.188-0.025
				c0.387-0.104,0.616-0.501,0.512-0.888l-0.699-2.595c-0.018-0.052-0.047-0.242-0.003-0.323c0.026-0.05,0.142-0.081,0.178-0.091
				c0.528-0.132,1.872-0.592,3.14-1.04l0.196,0.559c0,0,3.162-2.137,5.387-2.404c2.298-0.276,6.143-2.448,6.41-3.65
				C32.206,10.974,31.762,10.306,30.693,11.374z"/>
		</g>
	</g>
</g>
<g>
</g>
<g>
</g>
<g>
</g>
<g>
</g>
<g>
</g>
<g>
</g>
<g>
</g>
<g>
</g>
<g>
</g>
<g>
</g>
<g>
</g>
<g>
</g>
<g>
</g>
<g>
</g>
<g>
</g>
</svg>
