<?xml version="1.0" encoding="iso-8859-1"?>
<!-- Generator: Adobe Illustrator 16.0.0, SVG Export Plug-In . SVG Version: 6.00 Build 0)  -->
<!DOCTYPE svg PUBLIC "-//W3C//DTD SVG 1.1//EN" "http://www.w3.org/Graphics/SVG/1.1/DTD/svg11.dtd">
<svg version="1.1" id="Capa_1" xmlns="http://www.w3.org/2000/svg" xmlns:xlink="http://www.w3.org/1999/xlink" x="0px" y="0px"
	 width="349.314px" height="349.315px" viewBox="0 0 349.314 349.315" style="enable-background:new 0 0 349.314 349.315;"
	 xml:space="preserve">
<g>
	<g>
		<path d="M264.479,92.625V38.404v-32.4c0-3.317-2.692-6.004-5.989-6.004H90.392c-3.316,0-6.004,2.687-6.004,6.004v32.4v56.421
			c0,0.766,0.171,1.498,0.439,2.175v246.306c0,3.316,2.687,6.009,6.004,6.009h168.088c3.316,0,6.008-2.692,6.008-6.009V94.825
			C264.927,94.044,264.752,93.313,264.479,92.625z M96.396,12.008H252.48v20.407H96.396V12.008z M96.396,44.408H252.48v44.413
			H96.396V44.408z M252.919,337.297H96.834v-82.213h156.084V337.297z M100.419,234.805l2.936-46.111h13.886l4.517,15.394
			c1.434,5.346,2.873,11.091,3.892,16.495h0.209c1.303-5.336,2.878-11.423,4.375-16.554l4.926-15.315h13.613l2.541,46.092h-10.188
			l-0.693-17.646c-0.209-5.541-0.41-12.252-0.41-18.953h-0.2c-1.438,5.882-3.355,12.447-5.131,17.851l-5.614,17.997h-8.14
			l-4.926-17.87c-1.507-5.404-3.078-11.959-4.175-17.987h-0.132c-0.268,6.223-0.478,13.334-0.819,19.09l-0.829,17.52H100.419z
			 M159.304,234.805v-46.111h10.467v46.111H159.304z M207.599,226.045v8.76h-28.805v-46.111h10.467v37.352H207.599z
			 M224.279,209.082c1.024-1.785,2.117-3.424,3.151-5.062l10.467-15.325h12.788l-15.247,19.646l16.066,26.465h-12.174l-11.286-19.91
			l-3.97,4.858v15.052h-10.331v-46.111h10.331v20.388H224.279L224.279,209.082z M252.919,170.048H96.834v-69.224h156.084V170.048z"
			/>
	</g>
</g>
<g>
</g>
<g>
</g>
<g>
</g>
<g>
</g>
<g>
</g>
<g>
</g>
<g>
</g>
<g>
</g>
<g>
</g>
<g>
</g>
<g>
</g>
<g>
</g>
<g>
</g>
<g>
</g>
<g>
</g>
</svg>
