<?xml version="1.0" encoding="iso-8859-1"?>
<!-- Generator: Adobe Illustrator 16.0.0, SVG Export Plug-In . SVG Version: 6.00 Build 0)  -->
<!DOCTYPE svg PUBLIC "-//W3C//DTD SVG 1.1//EN" "http://www.w3.org/Graphics/SVG/1.1/DTD/svg11.dtd">
<svg version="1.1" id="Capa_1" xmlns="http://www.w3.org/2000/svg" xmlns:xlink="http://www.w3.org/1999/xlink" x="0px" y="0px"
	 width="11.586px" height="11.587px" viewBox="0 0 11.586 11.587" style="enable-background:new 0 0 11.586 11.587;"
	 xml:space="preserve">
<g>
	<g>
		<path d="M9.563,0H2.025C1.822,0,1.657,0.165,1.657,0.368v0.23c0,0.203,0.165,0.367,0.368,0.368h7.536
			c0.203,0,0.369-0.165,0.369-0.368l0,0v-0.23C9.93,0.165,9.766,0,9.563,0z"/>
		<polygon points="2.687,7.699 8.9,7.699 9.118,5.355 2.469,5.355 		"/>
		<polygon points="2.448,5.125 9.139,5.125 9.186,4.619 2.401,4.619 		"/>
		<polygon points="2.756,8.434 8.832,8.434 8.879,7.93 2.708,7.93 		"/>
		<polygon points="2.824,9.17 8.762,9.17 8.809,8.664 2.777,8.664 		"/>
		<polygon points="2.379,4.389 9.208,4.389 9.254,3.884 2.332,3.884 		"/>
		<polygon points="2.311,3.654 9.277,3.654 9.494,1.322 2.094,1.322 		"/>
		<path d="M2.845,9.398L2.845,9.398l0.173,1.861h0.001c0.002,0.182,0.148,0.327,0.33,0.327h4.892c0.182,0,0.33-0.147,0.33-0.33
			c0-0.003-0.001-0.005-0.002-0.008l0.172-1.851H2.845z"/>
	</g>
</g>
<g>
</g>
<g>
</g>
<g>
</g>
<g>
</g>
<g>
</g>
<g>
</g>
<g>
</g>
<g>
</g>
<g>
</g>
<g>
</g>
<g>
</g>
<g>
</g>
<g>
</g>
<g>
</g>
<g>
</g>
</svg>
