<?xml version="1.0" encoding="iso-8859-1"?>
<!-- Generator: Adobe Illustrator 16.0.0, SVG Export Plug-In . SVG Version: 6.00 Build 0)  -->
<!DOCTYPE svg PUBLIC "-//W3C//DTD SVG 1.1//EN" "http://www.w3.org/Graphics/SVG/1.1/DTD/svg11.dtd">
<svg version="1.1" id="Capa_1" xmlns="http://www.w3.org/2000/svg" xmlns:xlink="http://www.w3.org/1999/xlink" x="0px" y="0px"
	 width="44.297px" height="44.297px" viewBox="0 0 44.297 44.297" style="enable-background:new 0 0 44.297 44.297;"
	 xml:space="preserve">
<g>
	<path d="M25.292,3.874c-0.01-0.214-0.007-1.291,1.1-1.464c2.104-0.332,4.764-0.921,4.875-0.946L30.94,0
		c-0.028,0.007-2.727,0.605-4.783,0.928C24.15,1.244,23.735,3.055,23.8,3.825l-0.191,1.534H13.03l0.056,22.116l0.026,0.195
		c0.482,1.77,3.216,3.05,6.82,3.292c0.745,1.017,0.657,1.636-0.282,2.755c0.001,0.001,0.002,0.001,0.002,0.001
		c-0.647,0.472-1.073,1.231-1.073,2.093c0,0.869,0.431,1.633,1.086,2.103c1.029,1.233,1.026,1.858-0.014,3.101
		c0.007,0.006,0.013,0.01,0.02,0.016c-2.711,0.18-4.728,0.828-4.728,1.606c0,0.917,2.789,1.661,6.228,1.661
		c3.44,0,6.228-0.744,6.228-1.661c0-0.778-2.018-1.427-4.728-1.606c0.007-0.006,0.013-0.01,0.02-0.016
		c-1.041-1.242-1.044-1.865-0.014-3.101c0.655-0.47,1.085-1.233,1.085-2.103c0-0.862-0.426-1.621-1.073-2.092
		c0.001-0.001,0.002-0.001,0.002-0.002c-0.939-1.119-1.028-1.74-0.282-2.755c3.605-0.242,6.339-1.522,6.82-3.293l0.083-22.31h-4.203
		L25.292,3.874z M27.808,6.858l-0.053,20.498c-0.401,1.057-3.08,2.158-6.584,2.158c-3.502,0-6.183-1.102-6.585-2.158L14.532,6.858
		h8.887l-0.529,4.221h-6.986l0.039,15.223c0.304,1.12,2.527,1.697,5.226,1.697c2.7,0,4.921-0.578,5.226-1.697l0.039-15.223H24.4
		l0.522-4.221H27.808z"/>
</g>
<g>
</g>
<g>
</g>
<g>
</g>
<g>
</g>
<g>
</g>
<g>
</g>
<g>
</g>
<g>
</g>
<g>
</g>
<g>
</g>
<g>
</g>
<g>
</g>
<g>
</g>
<g>
</g>
<g>
</g>
</svg>
