<?xml version="1.0" encoding="iso-8859-1"?>
<!-- Generator: Adobe Illustrator 16.0.0, SVG Export Plug-In . SVG Version: 6.00 Build 0)  -->
<!DOCTYPE svg PUBLIC "-//W3C//DTD SVG 1.1//EN" "http://www.w3.org/Graphics/SVG/1.1/DTD/svg11.dtd">
<svg version="1.1" id="Capa_1" xmlns="http://www.w3.org/2000/svg" xmlns:xlink="http://www.w3.org/1999/xlink" x="0px" y="0px"
	 width="30.717px" height="30.717px" viewBox="0 0 30.717 30.717" style="enable-background:new 0 0 30.717 30.717;"
	 xml:space="preserve">
<g>
	<path d="M27.85,19.386L23.369,8.422c-0.198-0.483-0.681-0.758-1.175-0.72L21.18,5.05c-0.053-0.139-0.188-0.232-0.338-0.232H18.26
		c-0.102,0-0.199,0.043-0.268,0.12c-0.043,0.048-0.066,0.107-0.079,0.168l-0.286-2.839c0-0.006,0.002-0.012,0.002-0.018
		c0-0.299-0.242-0.541-0.541-0.541h-4.052c0.66-0.209,1.273-0.544,1.273-0.923C14.311,0.154,13.676,0,12.893,0h-2.209
		C9.901,0,9.266,0.154,9.266,0.787c0,0.379,0.613,0.713,1.273,0.923H8.311C8.629,2.087,8.99,2.523,9.415,3.044l0.14,0.172
		L7.538,23.924c-0.027,0.279-0.263,0.488-0.537,0.488c-0.018,0-0.035-0.001-0.053-0.002c-0.297-0.029-0.514-0.293-0.486-0.59
		L8.436,3.554C7.912,2.914,7.359,2.256,6.887,1.71H6.491c-0.002,0-0.003,0-0.005,0H5.065c-0.071,0-0.135,0.041-0.164,0.106
		C4.873,1.879,4.884,1.955,4.93,2.008l1.503,1.727L4.072,24.43L2.78,29.275c0,0.797,0.645,1.441,1.441,1.441h15.135
		c0.796,0,1.441-0.645,1.441-1.441l-0.961-4.805h0.033l-1.604-15.88c0.027,0.193,0.201,0.332,0.395,0.311
		c0.198-0.021,0.342-0.199,0.32-0.397L18.663,5.54h1.934l0.932,2.437c-0.375,0.32-0.525,0.852-0.329,1.333l4.481,10.963
		c0.244,0.6,0.93,0.888,1.529,0.643C27.807,20.67,28.094,19.984,27.85,19.386z"/>
</g>
<g>
</g>
<g>
</g>
<g>
</g>
<g>
</g>
<g>
</g>
<g>
</g>
<g>
</g>
<g>
</g>
<g>
</g>
<g>
</g>
<g>
</g>
<g>
</g>
<g>
</g>
<g>
</g>
<g>
</g>
</svg>
