<?xml version="1.0" encoding="iso-8859-1"?>
<!-- Generator: Adobe Illustrator 16.0.0, SVG Export Plug-In . SVG Version: 6.00 Build 0)  -->
<!DOCTYPE svg PUBLIC "-//W3C//DTD SVG 1.1//EN" "http://www.w3.org/Graphics/SVG/1.1/DTD/svg11.dtd">
<svg version="1.1" id="Capa_1" xmlns="http://www.w3.org/2000/svg" xmlns:xlink="http://www.w3.org/1999/xlink" x="0px" y="0px"
	 width="39.69px" height="39.689px" viewBox="0 0 39.69 39.689" style="enable-background:new 0 0 39.69 39.689;"
	 xml:space="preserve">
<g>
	<g>
		<path d="M25.964,39.689H13.725c-0.404,0-0.736-0.318-0.753-0.723c-0.006-0.135-0.131-3.35,0.687-7.06
			c0.74-3.358-0.112-5.374-0.121-5.394c-0.017-0.039-0.032-0.084-0.043-0.125c-0.142-0.58-3.507-14.279-3.67-19.583
			c-0.143-4.652,0.46-6.191,0.529-6.351C10.474,0.179,10.746,0,11.046,0h17.597c0.301,0,0.572,0.179,0.692,0.454
			c0.068,0.16,0.672,1.7,0.528,6.351c-0.163,5.305-3.527,19.003-3.671,19.583c-0.011,0.045-0.026,0.088-0.044,0.129
			c-0.007,0.017-0.859,2.032-0.119,5.39c0.817,3.71,0.693,6.925,0.688,7.061C26.7,39.371,26.367,39.689,25.964,39.689z
			 M14.472,38.182h10.745c-0.011-1.129-0.107-3.442-0.659-5.951c-0.783-3.551,0.011-5.821,0.185-6.258
			c0.237-0.969,3.461-14.232,3.614-19.214c0.091-2.954-0.135-4.544-0.287-5.252H11.618C11.467,2.21,11.241,3.8,11.332,6.759
			c0.153,4.981,3.377,18.244,3.614,19.214c0.174,0.437,0.968,2.707,0.185,6.258C14.579,34.739,14.482,37.053,14.472,38.182z"/>
	</g>
	<g>
		<path d="M23.543,25.594c0.32-1.318,2.901-12.012,3.458-17.472h-1.805c0,0-0.754,5.024-1.591,7.703c0.167-5.024,0-7.703,0-7.703
			H12.688c0.556,5.462,3.138,16.155,3.459,17.472c0.282,0.745,1.025,3.215,0.211,6.907c-0.179,0.813-0.307,1.601-0.4,2.331h7.772
			c-0.093-0.732-0.22-1.521-0.399-2.331C22.518,28.809,23.261,26.339,23.543,25.594z"/>
	</g>
</g>
<g>
</g>
<g>
</g>
<g>
</g>
<g>
</g>
<g>
</g>
<g>
</g>
<g>
</g>
<g>
</g>
<g>
</g>
<g>
</g>
<g>
</g>
<g>
</g>
<g>
</g>
<g>
</g>
<g>
</g>
</svg>
