<?xml version="1.0" encoding="iso-8859-1"?>
<!-- Generator: Adobe Illustrator 16.0.0, SVG Export Plug-In . SVG Version: 6.00 Build 0)  -->
<!DOCTYPE svg PUBLIC "-//W3C//DTD SVG 1.1//EN" "http://www.w3.org/Graphics/SVG/1.1/DTD/svg11.dtd">
<svg version="1.1" id="Capa_1" xmlns="http://www.w3.org/2000/svg" xmlns:xlink="http://www.w3.org/1999/xlink" x="0px" y="0px"
	 width="23.834px" height="23.834px" viewBox="0 0 23.834 23.834" style="enable-background:new 0 0 23.834 23.834;"
	 xml:space="preserve">
<g>
	<g>
		<path d="M16.062,6.691c-0.938-0.744-2.076-1.268-3.317-1.417c0.171-0.186,0.278-0.432,0.278-0.705
			c0-0.577-0.469-1.045-1.045-1.045c-0.577,0-1.045,0.468-1.045,1.045c0,0.279,0.111,0.531,0.289,0.719
			c-1.203,0.165-2.307,0.679-3.22,1.403H16.062z"/>
		<path d="M23.098,8.951c-0.406-0.478-1.184-1.011-2.578-0.85c-1.144,0.126-1.668,0.676-1.908,1.115
			c-0.196,0.359-0.266,0.754-0.269,1.141c-0.479-1.192-1.166-2.303-1.997-3.198H7.718c-1.251,1.346-2.171,3.18-2.56,5.046
			c-0.45-0.155-1.5-0.756-1.776-3.032C3.189,7.582,1.257,7.16,1.257,7.16L0.822,7.808L0,7.764c0,0,1.209,0.529,1.644,1.411
			c0.429,0.869,0.109,6.621,3.575,6.908c0.397,1.359,1.217,2.381,2.317,3.077H7.518v1.15h9.029v-1.15h-0.018
			c0.98-0.62,1.74-1.5,2.174-2.646c0.08,0.239,0.3,0.399,0.545,0.399c0.049,0,0.098-0.007,0.148-0.02
			c0.31-0.081,0.494-0.398,0.414-0.708c0-0.001-0.019-0.138,0.059-0.257c0.105-0.161,0.367-0.283,0.738-0.344
			c1.691-0.273,2.777-1.968,3.064-2.971C23.85,11.991,24.093,10.123,23.098,8.951z M22.557,12.293
			c-0.219,0.761-1.048,1.969-2.136,2.145c-0.608,0.1-1.067,0.322-1.372,0.661c0.04-0.312,0.062-0.638,0.062-0.978
			c0-0.523-0.051-1.057-0.145-1.59c0.172,0.157,0.43,0.202,0.649,0.092c0.286-0.144,0.403-0.492,0.26-0.779
			c-0.171-0.342-0.583-1.457-0.246-2.074c0.058-0.107,0.235-0.431,1.019-0.518c0.725-0.084,1.236,0.062,1.564,0.448
			C22.82,10.417,22.703,11.78,22.557,12.293z"/>
	</g>
</g>
<g>
</g>
<g>
</g>
<g>
</g>
<g>
</g>
<g>
</g>
<g>
</g>
<g>
</g>
<g>
</g>
<g>
</g>
<g>
</g>
<g>
</g>
<g>
</g>
<g>
</g>
<g>
</g>
<g>
</g>
</svg>
