<?xml version="1.0" encoding="iso-8859-1"?>
<!-- Generator: Adobe Illustrator 16.0.0, SVG Export Plug-In . SVG Version: 6.00 Build 0)  -->
<!DOCTYPE svg PUBLIC "-//W3C//DTD SVG 1.1//EN" "http://www.w3.org/Graphics/SVG/1.1/DTD/svg11.dtd">
<svg version="1.1" id="Capa_1" xmlns="http://www.w3.org/2000/svg" xmlns:xlink="http://www.w3.org/1999/xlink" x="0px" y="0px"
	 width="46.503px" height="46.503px" viewBox="0 0 46.503 46.503" style="enable-background:new 0 0 46.503 46.503;"
	 xml:space="preserve">
<g>
	<g>
		<path d="M25.228,44.482c-0.133-0.153-0.295-0.285-0.475-0.402c-0.618-7.445-0.618-11.221,0.001-18.67
			c2.705-0.301,4.776-1.436,6.158-3.399c4.802-6.833-0.271-21.157-0.49-21.763L30.333,0H16.171l-0.089,0.248
			c-0.219,0.606-5.292,14.931-0.49,21.763c1.381,1.964,3.453,3.099,6.158,3.399c0.618,7.447,0.619,11.224,0.001,18.669
			c-0.179,0.116-0.342,0.25-0.474,0.403c-3.9,0.08-7.77,0.433-7.77,1.521v0.5h19.489v-0.5
			C32.997,44.916,29.127,44.562,25.228,44.482z M16.63,21.05C12.638,15.371,29.407,1.471,29.407,1.471
			c0.617,1.829,4.459,13.897,0.468,19.578c-1.39,1.977-3.618,2.979-6.623,2.979C20.247,24.029,18.019,23.025,16.63,21.05z"/>
		<path d="M25.157,18.683c-0.992,0-1.799,0.808-1.799,1.801c0,0.993,0.808,1.8,1.799,1.8c0.992,0,1.801-0.808,1.801-1.8
			C26.959,19.491,26.151,18.683,25.157,18.683z M25.157,21.534c-0.578,0-1.049-0.471-1.049-1.05c0-0.58,0.471-1.051,1.049-1.051
			c0.58,0,1.051,0.471,1.051,1.051C26.209,21.063,25.737,21.534,25.157,21.534z"/>
		<path d="M26.959,14.284c-0.718,0-1.3,0.583-1.3,1.3s0.582,1.3,1.3,1.3c0.717,0,1.3-0.583,1.3-1.3S27.676,14.284,26.959,14.284z
			 M26.959,16.133c-0.304,0-0.55-0.247-0.55-0.55s0.246-0.55,0.55-0.55c0.303,0,0.55,0.247,0.55,0.55S27.262,16.133,26.959,16.133z"
			/>
	</g>
	<g>
		<path d="M28.487,19.433c-0.541,0-0.981-0.44-0.981-0.982s0.44-0.982,0.981-0.982c0.543,0,0.982,0.44,0.982,0.982
			S29.03,19.433,28.487,19.433z M28.487,18.219c-0.127,0-0.231,0.104-0.231,0.232c0,0.256,0.464,0.256,0.464,0
			C28.721,18.323,28.616,18.219,28.487,18.219z"/>
	</g>
</g>
<g>
</g>
<g>
</g>
<g>
</g>
<g>
</g>
<g>
</g>
<g>
</g>
<g>
</g>
<g>
</g>
<g>
</g>
<g>
</g>
<g>
</g>
<g>
</g>
<g>
</g>
<g>
</g>
<g>
</g>
</svg>
