<?xml version="1.0" encoding="iso-8859-1"?>
<!-- Generator: Adobe Illustrator 16.0.0, SVG Export Plug-In . SVG Version: 6.00 Build 0)  -->
<!DOCTYPE svg PUBLIC "-//W3C//DTD SVG 1.1//EN" "http://www.w3.org/Graphics/SVG/1.1/DTD/svg11.dtd">
<svg version="1.1" id="Capa_1" xmlns="http://www.w3.org/2000/svg" xmlns:xlink="http://www.w3.org/1999/xlink" x="0px" y="0px"
	 width="14.518px" height="14.518px" viewBox="0 0 14.518 14.518" style="enable-background:new 0 0 14.518 14.518;"
	 xml:space="preserve">
<g>
	<g>
		<path d="M10.015,4.943c0-0.033-0.01-0.066-0.025-0.096L8.271,1.704c-0.02-0.035-0.05-0.061-0.084-0.079
			C8.256,1.542,8.303,1.438,8.303,1.32V0.48C8.304,0.215,8.089,0,7.823,0h-1.13c-0.265,0-0.48,0.215-0.48,0.48v0.84
			c0,0.118,0.047,0.222,0.117,0.305C6.296,1.643,6.266,1.669,6.247,1.704L4.528,4.848C4.512,4.877,4.503,4.91,4.503,4.943v8.3
			c0,0.012,0.001,0.022,0.003,0.034c-0.002,0.019-0.003,0.037-0.003,0.055c0,0.548,0.479,1.186,1.095,1.186
			c0.35,0,0.639-0.195,0.83-0.449c0.191,0.254,0.48,0.449,0.83,0.449c0.351,0,0.638-0.195,0.83-0.449
			c0.19,0.254,0.479,0.449,0.83,0.449c0.617,0,1.097-0.638,1.097-1.186c0-0.018-0.002-0.033-0.004-0.053
			c0.002-0.012,0.004-0.023,0.004-0.036V4.943z M9.612,13.182c-0.008,0.027-0.012,0.057-0.008,0.086
			c0,0.002,0.008,0.062,0.008,0.064c0,0.354-0.32,0.785-0.694,0.785c-0.304,0-0.546-0.273-0.644-0.527
			c-0.028-0.076-0.104-0.129-0.187-0.129s-0.157,0.053-0.187,0.129c-0.098,0.254-0.34,0.527-0.644,0.527
			c-0.305,0-0.547-0.273-0.643-0.527c-0.059-0.154-0.315-0.154-0.374,0c-0.096,0.254-0.338,0.527-0.643,0.527
			c-0.375,0-0.695-0.432-0.695-0.785l0.008-0.064c0.003-0.026,0-0.054-0.008-0.078V4.994L6.541,2h1.437l1.635,2.994V13.182z"/>
		<path d="M5.375,7.422v1.989c0,0.225,0.182,0.407,0.407,0.407h2.952c0.226,0,0.408-0.183,0.408-0.407V7.422
			c0-0.225-0.183-0.407-0.408-0.407H5.782C5.557,7.015,5.375,7.197,5.375,7.422z"/>
		<ellipse cx="7.258" cy="4.685" rx="1.22" ry="0.656"/>
	</g>
</g>
<g>
</g>
<g>
</g>
<g>
</g>
<g>
</g>
<g>
</g>
<g>
</g>
<g>
</g>
<g>
</g>
<g>
</g>
<g>
</g>
<g>
</g>
<g>
</g>
<g>
</g>
<g>
</g>
<g>
</g>
</svg>
