<?xml version="1.0" encoding="iso-8859-1"?>
<!-- Generator: Adobe Illustrator 16.0.0, SVG Export Plug-In . SVG Version: 6.00 Build 0)  -->
<!DOCTYPE svg PUBLIC "-//W3C//DTD SVG 1.1//EN" "http://www.w3.org/Graphics/SVG/1.1/DTD/svg11.dtd">
<svg version="1.1" id="Capa_1" xmlns="http://www.w3.org/2000/svg" xmlns:xlink="http://www.w3.org/1999/xlink" x="0px" y="0px"
	 width="17.361px" height="17.361px" viewBox="0 0 17.361 17.361" style="enable-background:new 0 0 17.361 17.361;"
	 xml:space="preserve">
<g>
	<g>
		<path d="M11.498,9.879l-0.024-0.293c-0.026-0.324-0.243-1.143-0.594-2.452C10.493,5.701,9.782,3.05,9.87,2.566
			c0.344-0.464,0.208-0.923,0.03-1.193c0.021-0.19,0.038-0.521-0.021-0.822C9.772,0.024,8.758,0,8.748,0
			C8.724,0,8.702,0.001,8.681,0.002C8.661,0.001,8.639,0,8.615,0c-0.01,0-1.025,0.024-1.13,0.551c-0.06,0.3-0.042,0.631-0.022,0.821
			c-0.178,0.27-0.313,0.729,0.03,1.193C7.581,3.05,6.869,5.701,6.484,7.134C6.132,8.443,5.916,9.262,5.889,9.586L5.864,9.879
			c-0.082,0.943-0.236,3.164-0.131,6.452c0.053,0.589,1.634,1.03,2.956,1.03s2.885-0.438,2.938-1.01
			C11.734,13.044,11.581,10.823,11.498,9.879z M8.681,11.125c0.98,0,1.774,0.6,1.774,1.337c0,0.738-0.795,1.338-1.774,1.338
			s-1.774-0.599-1.774-1.337S7.701,11.125,8.681,11.125z M11.28,15.855c-0.046,0.504-1.451,0.644-2.291,0.683
			c0,0-0.158,0.015-0.308,0.011c-0.151,0.004-0.308-0.011-0.308-0.011c-0.839-0.039-2.244-0.179-2.291-0.683
			c-0.116-3.645,0.086-5.383,0.155-6.241C6.276,9.137,6.87,7.105,7.325,5.312c0.047,0.052,0.116,0.101,0.202,0.144
			c-0.135,0.529-0.294,1.133-0.482,1.83C6.761,8.345,6.492,9.345,6.469,9.632l-0.026,0.3c-0.081,0.932-0.232,2.666-0.129,5.916
			c0.008,0.084,0.408,0.381,2.069,0.457l0.222,0.014c0.022,0,0.046-0.002,0.07-0.002c0.071,0.002,0.131,0.002,0.179,0.002
			l0.124-0.014c1.662-0.076,2.061-0.373,2.071-0.472c0.103-3.24-0.049-4.974-0.13-5.903l-0.025-0.298
			c-0.023-0.287-0.292-1.288-0.576-2.348C10.13,6.591,9.972,5.989,9.837,5.462C9.922,5.42,9.991,5.373,10.04,5.323
			c0.454,1.79,1.047,3.813,1.085,4.29C11.194,10.473,11.397,12.211,11.28,15.855z"/>
	</g>
	<ellipse cx="8.681" cy="12.463" rx="1.386" ry="0.974"/>
</g>
<g>
</g>
<g>
</g>
<g>
</g>
<g>
</g>
<g>
</g>
<g>
</g>
<g>
</g>
<g>
</g>
<g>
</g>
<g>
</g>
<g>
</g>
<g>
</g>
<g>
</g>
<g>
</g>
<g>
</g>
</svg>
