<?xml version="1.0" encoding="iso-8859-1"?>
<!-- Generator: Adobe Illustrator 16.0.0, SVG Export Plug-In . SVG Version: 6.00 Build 0)  -->
<!DOCTYPE svg PUBLIC "-//W3C//DTD SVG 1.1//EN" "http://www.w3.org/Graphics/SVG/1.1/DTD/svg11.dtd">
<svg version="1.1" id="Capa_1" xmlns="http://www.w3.org/2000/svg" xmlns:xlink="http://www.w3.org/1999/xlink" x="0px" y="0px"
	 width="17.498px" height="17.498px" viewBox="0 0 17.498 17.498" style="enable-background:new 0 0 17.498 17.498;"
	 xml:space="preserve">
<g>
	<g>
		<path d="M9.518,15.617c-0.038-0.038-0.074-0.071-0.104-0.098c-0.028-0.025-0.047-0.043-0.061-0.057
			c0.083-1.658,0.135-4.179,0.151-5.05c1.88-0.808,3.063-4.466,3.063-6.26c0-1.086-0.384-2.596-0.979-3.847l-0.038-0.081
			C11.486,0.088,11.348,0,11.195,0H6.304C6.152,0,6.013,0.088,5.947,0.225L5.909,0.306C5.313,1.558,4.93,3.068,4.93,4.153
			c0,1.794,1.184,5.453,3.064,6.26c0.016,0.871,0.068,3.39,0.151,5.05c-0.013,0.014-0.032,0.031-0.06,0.057
			c-0.03,0.026-0.066,0.059-0.104,0.098c-2.179,0.14-2.179,0.73-2.179,0.928c0,0.829,1.847,0.953,2.948,0.953
			c1.101,0,2.948-0.124,2.948-0.953C11.697,16.348,11.697,15.757,9.518,15.617z M8.75,17.104c-1.41,0-2.553-0.25-2.553-0.559
			c0-0.264,0.843-0.484,1.973-0.543c0.147-0.202,0.317-0.251,0.374-0.459c-0.092-1.771-0.148-4.635-0.161-5.412
			c-1.76-0.456-3.058-4.096-3.058-5.978c0-1.032,0.369-2.475,0.94-3.677l0.038-0.081h4.891l0.038,0.081
			c0.571,1.202,0.94,2.646,0.94,3.677c0,1.881-1.299,5.521-3.059,5.977c-0.014,0.778-0.07,3.642-0.162,5.412
			c0.058,0.208,0.229,0.257,0.375,0.459c1.129,0.058,1.973,0.278,1.973,0.543C11.302,16.854,10.158,17.104,8.75,17.104z"/>
		<path d="M10.943,7.782c0.566-1.164,0.946-2.623,0.946-3.629c0-0.955-0.351-2.34-0.875-3.475H6.484
			C5.958,1.813,5.609,3.198,5.609,4.153c0,1.904,1.37,5.599,3.046,5.736c0.031,0,0.063,0,0.095,0c0.033,0,0.066,0,0.099,0
			C9.561,9.824,10.318,9.064,10.943,7.782z M6.741,1.074h4.018c0.207,0.483,0.376,1.002,0.503,1.504
			c-0.421-0.21-1.49-0.617-2.442,0.104c-1,0.757-2.224,0.27-2.627,0.074C6.322,2.2,6.509,1.615,6.741,1.074z"/>
	</g>
</g>
<g>
</g>
<g>
</g>
<g>
</g>
<g>
</g>
<g>
</g>
<g>
</g>
<g>
</g>
<g>
</g>
<g>
</g>
<g>
</g>
<g>
</g>
<g>
</g>
<g>
</g>
<g>
</g>
<g>
</g>
</svg>
