<?xml version="1.0" encoding="iso-8859-1"?>
<!-- Generator: Adobe Illustrator 16.0.0, SVG Export Plug-In . SVG Version: 6.00 Build 0)  -->
<!DOCTYPE svg PUBLIC "-//W3C//DTD SVG 1.1//EN" "http://www.w3.org/Graphics/SVG/1.1/DTD/svg11.dtd">
<svg version="1.1" id="Capa_1" xmlns="http://www.w3.org/2000/svg" xmlns:xlink="http://www.w3.org/1999/xlink" x="0px" y="0px"
	 width="21.125px" height="21.125px" viewBox="0 0 21.125 21.125" style="enable-background:new 0 0 21.125 21.125;"
	 xml:space="preserve">
<g>
	<g>
		<path d="M10.563,11.652c1.792,0,3.613-4.427,3.613-6.9c0-0.523-0.09-1.155-0.244-1.818H7.194C7.04,3.597,6.95,4.229,6.95,4.752
			C6.95,7.225,8.771,11.652,10.563,11.652z"/>
		<path d="M11.296,19.732c-0.187-0.256-0.401-0.316-0.475-0.58c0.117-2.238,0.187-5.86,0.203-6.844
			c2.227-0.576,3.867-5.179,3.867-7.558c0-1.304-0.467-3.13-1.189-4.65L13.654,0H7.471L7.422,0.102
			C6.7,1.622,6.233,3.447,6.233,4.752c0,2.379,1.641,6.98,3.867,7.559c0.017,0.982,0.087,4.604,0.203,6.842
			c-0.072,0.264-0.288,0.326-0.474,0.582C8.4,19.807,7.334,20.086,7.334,20.42c0,0.391,1.445,0.705,3.228,0.705
			c1.782,0,3.228-0.316,3.228-0.705C13.79,20.085,12.725,19.807,11.296,19.732z M6.591,4.752c0-1.207,0.442-2.959,1.106-4.393h5.729
			c0.664,1.435,1.106,3.186,1.106,4.393c0,1.272-0.481,3.116-1.198,4.588c-0.789,1.623-1.746,2.582-2.648,2.664
			c-0.08-0.002-0.164-0.002-0.245,0C8.324,11.832,6.591,7.16,6.591,4.752z"/>
	</g>
</g>
<g>
</g>
<g>
</g>
<g>
</g>
<g>
</g>
<g>
</g>
<g>
</g>
<g>
</g>
<g>
</g>
<g>
</g>
<g>
</g>
<g>
</g>
<g>
</g>
<g>
</g>
<g>
</g>
<g>
</g>
</svg>
